<?xml version="1.0" encoding="UTF-8" standalone="no"?>
<!-- Created with Inkscape (http://www.inkscape.org/) -->

<svg
   width="210mm"
   height="297mm"
   viewBox="0 0 210 297"
   version="1.1"
   id="svg1"
   inkscape:version="1.3.2 (091e20ef0f, 2023-11-25, custom)"
   sodipodi:docname="button_artwork.svg"
   xmlns:inkscape="http://www.inkscape.org/namespaces/inkscape"
   xmlns:sodipodi="http://sodipodi.sourceforge.net/DTD/sodipodi-0.dtd"
   xmlns:xlink="http://www.w3.org/1999/xlink"
   xmlns="http://www.w3.org/2000/svg"
   xmlns:svg="http://www.w3.org/2000/svg">
  <sodipodi:namedview
     id="namedview1"
     pagecolor="#ffffff"
     bordercolor="#999999"
     borderopacity="1"
     inkscape:showpageshadow="0"
     inkscape:pageopacity="0"
     inkscape:pagecheckerboard="0"
     inkscape:deskcolor="#d1d1d1"
     inkscape:document-units="mm"
     inkscape:zoom="1.2523611"
     inkscape:cx="358.52279"
     inkscape:cy="484.28524"
     inkscape:window-width="2556"
     inkscape:window-height="1388"
     inkscape:window-x="0"
     inkscape:window-y="0"
     inkscape:window-maximized="0"
     inkscape:current-layer="layer1" />
  <defs
     id="defs1">
    <radialGradient
       inkscape:collect="always"
       xlink:href="#linearGradient14931"
       id="radialGradient14935"
       cx="441.5607"
       cy="128.59381"
       fx="441.5607"
       fy="128.59381"
       r="38"
       gradientUnits="userSpaceOnUse"
       gradientTransform="matrix(1.00004,0,0,1.00004,-15.247086,8.024764)" />
    <linearGradient
       inkscape:collect="always"
       id="linearGradient14931">
      <stop
         style="stop-color:#ffffff;stop-opacity:1;"
         offset="0"
         id="stop14927" />
      <stop
         style="stop-color:#bfff00;stop-opacity:1;"
         offset="1"
         id="stop14929" />
    </linearGradient>
    <radialGradient
       inkscape:collect="always"
       xlink:href="#linearGradient1899"
       id="radialGradient1901"
       cx="357.9487"
       cy="78.286552"
       fx="357.9487"
       fy="78.286552"
       r="24.911682"
       gradientTransform="matrix(0,2.4757748,-2.4280558,0,548.03281,-805.04973)"
       gradientUnits="userSpaceOnUse" />
    <linearGradient
       inkscape:collect="always"
       id="linearGradient1899">
      <stop
         style="stop-color:#ffffff;stop-opacity:1;"
         offset="0.1"
         id="stop1897" />
      <stop
         style="stop-color:#00994a;stop-opacity:1;"
         offset="1"
         id="stop1895" />
    </linearGradient>
    <radialGradient
       inkscape:collect="always"
       xlink:href="#linearGradient4600"
       id="radialGradient2246"
       gradientUnits="userSpaceOnUse"
       gradientTransform="matrix(1.00004,0,0,1.00004,196.59382,57.901024)"
       cx="441.5607"
       cy="128.59381"
       fx="441.5607"
       fy="128.59381"
       r="38" />
    <linearGradient
       inkscape:collect="always"
       id="linearGradient4600">
      <stop
         style="stop-color:#ffffff;stop-opacity:1;"
         offset="0"
         id="stop4596" />
      <stop
         style="stop-color:#ff99df;stop-opacity:1;"
         offset="1"
         id="stop4598" />
    </linearGradient>
    <radialGradient
       inkscape:collect="always"
       xlink:href="#linearGradient22129"
       id="radialGradient22180"
       cx="524.23828"
       cy="117.07816"
       fx="524.23828"
       fy="117.07816"
       r="21.00001"
       gradientTransform="matrix(0,2.8095628,-2.8095569,0,946.10919,-1307.3813)"
       gradientUnits="userSpaceOnUse" />
    <linearGradient
       inkscape:collect="always"
       id="linearGradient22129">
      <stop
         style="stop-color:#ffffff;stop-opacity:1;"
         offset="0.1"
         id="stop22125" />
      <stop
         style="stop-color:#cc0070;stop-opacity:1;"
         offset="1"
         id="stop22127" />
    </linearGradient>
    <radialGradient
       inkscape:collect="always"
       xlink:href="#linearGradient52548"
       id="radialGradient2246-5"
       gradientUnits="userSpaceOnUse"
       gradientTransform="matrix(1.00004,0,0,1.00004,318.81589,-153.12436)"
       cx="441.5607"
       cy="128.59381"
       fx="441.5607"
       fy="128.59381"
       r="38" />
    <linearGradient
       inkscape:collect="always"
       id="linearGradient52548">
      <stop
         style="stop-color:#ffffff;stop-opacity:1;"
         offset="0"
         id="stop52544" />
      <stop
         style="stop-color:#80aaff;stop-opacity:1;"
         offset="1"
         id="stop52546" />
    </linearGradient>
    <inkscape:path-effect
       effect="fillet_chamfer"
       id="path-effect56582"
       is_visible="true"
       lpeversion="1"
       nodesatellites_param="F,0,1,1,0,4.7625,0,1 @ F,0,1,1,0,4.7625,0,1 @ F,0,0,1,0,0,0,1 @ F,0,1,1,0,4.7625,0,1 @ F,0,1,1,0,4.7625,0,1 @ F,0,0,1,0,0,0,1 @ F,0,1,1,0,4.7625,0,1 @ F,0,1,1,0,4.7625,0,1 @ F,0,0,1,0,0,0,1 @ F,0,1,1,0,4.7625,0,1 @ F,0,1,1,0,4.7625,0,1 @ F,0,0,1,0,0,0,1"
       unit="px"
       method="auto"
       mode="F"
       radius="18"
       chamfer_steps="1"
       flexible="false"
       use_knot_distance="true"
       apply_no_radius="true"
       apply_with_radius="true"
       only_selected="true"
       hide_knots="false" />
    <inkscape:path-effect
       effect="fillet_chamfer"
       id="path-effect58324"
       is_visible="true"
       lpeversion="1"
       nodesatellites_param="F,0,0,1,0,0,0,1 @ F,0,0,1,0,0,0,1 @ F,0,0,1,0,0,0,1 @ F,0,1,1,0,0.79375,0,1 @ F,0,0,1,0,0,0,1 @ F,0,0,1,0,0,0,1 @ F,0,0,1,0,0,0,1 @ F,0,0,1,0,0,0,1 @ F,0,1,1,0,0.79375,0,1 @ F,0,0,1,0,0,0,1 @ F,0,0,1,0,0,0,1 @ F,0,0,1,0,0,0,1 @ F,0,0,1,0,0,0,1 @ F,0,1,1,0,0.79375,0,1 @ F,0,0,1,0,0,0,1 @ F,0,0,1,0,0,0,1 @ F,0,0,1,0,0,0,1 @ F,0,0,1,0,0,0,1 @ F,0,1,1,0,0.79375,0,1 @ F,0,0,1,0,0,0,1"
       unit="px"
       method="auto"
       mode="F"
       radius="3"
       chamfer_steps="1"
       flexible="false"
       use_knot_distance="true"
       apply_no_radius="true"
       apply_with_radius="true"
       only_selected="true"
       hide_knots="false" />
    <inkscape:path-effect
       effect="fillet_chamfer"
       id="path-effect58330"
       is_visible="true"
       lpeversion="1"
       nodesatellites_param="F,0,1,1,0,4.7625,0,1 @ F,0,1,1,0,4.7625,0,1 @ F,0,0,1,0,0,0,1 @ F,0,1,1,0,4.7625,0,1 @ F,0,1,1,0,4.7625,0,1 @ F,0,0,1,0,0,0,1 @ F,0,1,1,0,4.7625,0,1 @ F,0,1,1,0,4.7625,0,1 @ F,0,0,1,0,0,0,1 @ F,0,1,1,0,4.7625,0,1 @ F,0,1,1,0,4.7625,0,1 @ F,0,0,1,0,0,0,1"
       unit="px"
       method="auto"
       mode="F"
       radius="18"
       chamfer_steps="1"
       flexible="false"
       use_knot_distance="true"
       apply_no_radius="true"
       apply_with_radius="true"
       only_selected="true"
       hide_knots="false" />
    <inkscape:path-effect
       effect="fillet_chamfer"
       id="path-effect58334"
       is_visible="true"
       lpeversion="1"
       nodesatellites_param="F,0,0,1,0,0,0,1 @ F,0,0,1,0,0,0,1 @ F,0,0,1,0,0,0,1 @ F,0,1,1,0,0.79375,0,1 @ F,0,0,1,0,0,0,1 @ F,0,0,1,0,0,0,1 @ F,0,0,1,0,0,0,1 @ F,0,0,1,0,0,0,1 @ F,0,1,1,0,0.79375,0,1 @ F,0,0,1,0,0,0,1 @ F,0,0,1,0,0,0,1 @ F,0,0,1,0,0,0,1 @ F,0,0,1,0,0,0,1 @ F,0,1,1,0,0.79375,0,1 @ F,0,0,1,0,0,0,1 @ F,0,0,1,0,0,0,1 @ F,0,0,1,0,0,0,1 @ F,0,0,1,0,0,0,1 @ F,0,1,1,0,0.79375,0,1 @ F,0,0,1,0,0,0,1"
       unit="px"
       method="auto"
       mode="F"
       radius="3"
       chamfer_steps="1"
       flexible="false"
       use_knot_distance="true"
       apply_no_radius="true"
       apply_with_radius="true"
       only_selected="true"
       hide_knots="false" />
    <inkscape:path-effect
       effect="offset"
       id="path-effect58336"
       is_visible="true"
       lpeversion="1.2"
       linejoin_type="miter"
       unit="mm"
       offset="-1.75"
       miter_limit="4"
       attempt_force_join="false"
       update_on_knot_move="true" />
    <radialGradient
       inkscape:collect="always"
       xlink:href="#linearGradient61331"
       id="radialGradient60911"
       cx="739.13391"
       cy="-45.777393"
       fx="739.13391"
       fy="-45.777393"
       r="20.880957"
       gradientTransform="matrix(0,2.8196731,-2.8193844,0,610.06984,-2129.9122)"
       gradientUnits="userSpaceOnUse" />
    <linearGradient
       inkscape:collect="always"
       id="linearGradient61331">
      <stop
         style="stop-color:#ffffff;stop-opacity:1;"
         offset="0.1"
         id="stop61327" />
      <stop
         style="stop-color:#0055cc;stop-opacity:1;"
         offset="1"
         id="stop61329" />
    </linearGradient>
    <inkscape:path-effect
       effect="fillet_chamfer"
       id="path-effect58342"
       is_visible="true"
       lpeversion="1"
       nodesatellites_param="F,0,1,1,0,4.7625,0,1 @ F,0,1,1,0,4.7625,0,1 @ F,0,0,1,0,0,0,1 @ F,0,1,1,0,4.7625,0,1 @ F,0,1,1,0,4.7625,0,1 @ F,0,0,1,0,0,0,1 @ F,0,1,1,0,4.7625,0,1 @ F,0,1,1,0,4.7625,0,1 @ F,0,0,1,0,0,0,1 @ F,0,1,1,0,4.7625,0,1 @ F,0,1,1,0,4.7625,0,1 @ F,0,0,1,0,0,0,1"
       unit="px"
       method="auto"
       mode="F"
       radius="18"
       chamfer_steps="1"
       flexible="false"
       use_knot_distance="true"
       apply_no_radius="true"
       apply_with_radius="true"
       only_selected="true"
       hide_knots="false" />
    <inkscape:path-effect
       effect="fillet_chamfer"
       id="path-effect58346"
       is_visible="true"
       lpeversion="1"
       nodesatellites_param="F,0,0,1,0,0,0,1 @ F,0,0,1,0,0,0,1 @ F,0,0,1,0,0,0,1 @ F,0,1,1,0,0.79375,0,1 @ F,0,0,1,0,0,0,1 @ F,0,0,1,0,0,0,1 @ F,0,0,1,0,0,0,1 @ F,0,0,1,0,0,0,1 @ F,0,1,1,0,0.79375,0,1 @ F,0,0,1,0,0,0,1 @ F,0,0,1,0,0,0,1 @ F,0,0,1,0,0,0,1 @ F,0,0,1,0,0,0,1 @ F,0,1,1,0,0.79375,0,1 @ F,0,0,1,0,0,0,1 @ F,0,0,1,0,0,0,1 @ F,0,0,1,0,0,0,1 @ F,0,0,1,0,0,0,1 @ F,0,1,1,0,0.79375,0,1 @ F,0,0,1,0,0,0,1"
       unit="px"
       method="auto"
       mode="F"
       radius="3"
       chamfer_steps="1"
       flexible="false"
       use_knot_distance="true"
       apply_no_radius="true"
       apply_with_radius="true"
       only_selected="true"
       hide_knots="false" />
    <inkscape:path-effect
       effect="offset"
       id="path-effect58350"
       is_visible="true"
       lpeversion="1.2"
       linejoin_type="miter"
       unit="mm"
       offset="-3.5"
       miter_limit="4"
       attempt_force_join="false"
       update_on_knot_move="true" />
    <radialGradient
       inkscape:collect="always"
       xlink:href="#linearGradient83858"
       id="radialGradient61489"
       gradientUnits="userSpaceOnUse"
       gradientTransform="matrix(1.00004,0,0,1.00004,426.1859,-151.24786)"
       cx="441.5607"
       cy="128.59381"
       fx="441.5607"
       fy="128.59381"
       r="38" />
    <linearGradient
       inkscape:collect="always"
       id="linearGradient83858">
      <stop
         style="stop-color:#ffffff;stop-opacity:1;"
         offset="0"
         id="stop83854" />
      <stop
         style="stop-color:#ff7373;stop-opacity:1;"
         offset="1"
         id="stop83856" />
    </linearGradient>
    <radialGradient
       inkscape:collect="always"
       xlink:href="#linearGradient88699"
       id="radialGradient88072"
       cx="842.85077"
       cy="-46.318851"
       fx="842.85077"
       fy="-46.318851"
       r="24.444506"
       gradientTransform="matrix(0,2.5516264,-2.5769111,0,723.94911,-2197.7385)"
       gradientUnits="userSpaceOnUse" />
    <linearGradient
       inkscape:collect="always"
       id="linearGradient88699">
      <stop
         style="stop-color:#ffffff;stop-opacity:1;"
         offset="0.1"
         id="stop88695" />
      <stop
         style="stop-color:#cc0000;stop-opacity:1;"
         offset="1"
         id="stop88697" />
    </linearGradient>
  </defs>
  <g
     inkscape:label="Layer 1"
     inkscape:groupmode="layer"
     id="layer1">
    <g
       id="g89962"
       style="display:inline"
       transform="translate(-0.43802492,-13.948714)">
      <g
         id="g2228"
         transform="translate(-363.9563,-52.164281)">
        <circle
           style="fill:url(#radialGradient14935);fill-opacity:1;stroke:#00994a;stroke-width:3;stroke-linecap:round;stroke-linejoin:round;stroke-dasharray:none;stroke-opacity:1;stop-color:#000000"
           id="path4653"
           cx="426.33127"
           cy="136.62372"
           r="36.5" />
        <path
           id="rect24491-7"
           style="fill:#c4ff15;fill-opacity:1;stroke-width:1.41373;stroke-linecap:round;stroke-linejoin:round;stop-color:#000000"
           d="m 426.33127,101.62311 c -0.29246,0 -0.58415,0.004 -0.87488,0.0109 v 0.86455 h 1.75028 v -0.86455 c -0.2909,-0.007 -0.58277,-0.0109 -0.8754,-0.0109 z m -2.62465,0.0977 c -0.58771,0.0435 -1.17105,0.10158 -1.75028,0.17363 v 0.6041 h 1.75028 z m 5.24981,0 v 0.77773 h 1.75028 v -0.6041 c -0.57907,-0.072 -1.16273,-0.13018 -1.75028,-0.17363 z m -8.74985,0.43614 c -0.5691,0.10022 -1.13371,0.21428 -1.69292,0.34159 h 1.69292 z m 12.2499,0 v 0.34159 h 1.69188 c -0.55903,-0.12727 -1.12297,-0.2414 -1.69188,-0.34159 z m -19.45515,2.09135 c -0.52144,0.21461 -1.03621,0.44136 -1.5446,0.68006 v 1.07022 h 1.74976 v -1.75028 z m 1.95544,0 v 1.75028 h 1.74976 v -1.75028 z m 3.49953,0 v 1.75028 h 1.75028 v -1.75028 z m 3.50004,0 v 1.75028 h 1.75028 v -1.75028 z m 3.50005,0 v 1.75028 h 1.75028 v -1.75028 z m 3.50004,0 v 1.75028 h 1.75028 v -1.75028 z m 3.50005,0 v 1.75028 h 1.75028 v -1.75028 z m 3.50004,0 v 1.75028 h 1.74977 v -1.75028 z m 3.50005,0 v 1.75028 h 1.74976 v -1.07022 c -0.50853,-0.23877 -1.02354,-0.46539 -1.54512,-0.68006 z m -29.75013,1.56114 c -0.11486,0.062 -0.22853,0.12586 -0.34261,0.18914 h 0.34261 z m 33.25017,0 v 0.18914 h 0.3421 c -0.11395,-0.0632 -0.22737,-0.12717 -0.3421,-0.18914 z m -34.99993,1.9389 v 1.74977 h 1.74976 v -1.7498 z m 3.50005,0 v 1.74977 h 1.74976 v -1.7498 z m 3.50004,0 v 1.74977 h 1.74976 v -1.7498 z m 3.49953,0 v 1.74977 h 1.75028 v -1.7498 z m 3.50004,0 v 1.74977 h 1.75028 v -1.7498 z m 3.50005,0 v 1.74977 h 1.75028 v -1.7498 z m 3.50004,0 v 1.74977 h 1.75028 v -1.7498 z m 3.50005,0 v 1.74977 h 1.75028 v -1.7498 z m 3.50004,0 v 1.74977 h 1.74977 v -1.7498 z m 3.50005,0 v 1.74977 h 1.74976 v -1.7498 z m 3.50004,0 v 1.74977 h 1.74977 v -1.7498 z m -36.75021,0.22738 c -0.59752,0.42026 -1.1806,0.85925 -1.74976,1.31517 v 0.20722 h 1.74976 z m 40.25026,5.2e-4 v 1.52187 h 1.74976 v -0.20671 c -0.56907,-0.45586 -1.15235,-0.89495 -1.74976,-1.31516 z m -44.24433,3.27215 c -0.42894,0.4078 -0.84793,0.82629 -1.25574,1.25522 v 0.49454 h 1.74976 v -1.74976 z m 2.24431,0 v 1.74976 h 1.74976 v -1.74976 z m 3.50004,0 v 1.74976 h 1.74976 v -1.74976 z m 3.50005,0 v 1.74976 h 1.74976 v -1.74976 z m 3.50004,0 v 1.74976 h 1.74976 v -1.74976 z m 3.49953,0 v 1.74976 h 1.75028 v -1.74976 z m 3.50004,0 v 1.74976 h 1.75028 v -1.74976 z m 3.50005,0 v 1.74976 h 1.75028 v -1.74976 z m 3.50004,0 v 1.74976 h 1.75028 v -1.74976 z m 3.50005,0 v 1.74976 h 1.75028 v -1.74976 z m 3.50004,0 v 1.74976 h 1.74977 v -1.74976 z m 3.50005,0 v 1.74976 h 1.74976 v -1.74976 z m 3.50004,0 v 1.74976 h 1.74977 v -1.74976 z m 3.50005,0 v 1.74976 h 1.74976 v -1.74976 z m 3.50004,0 v 1.74976 h 1.74976 v -0.49351 c -0.40812,-0.42929 -0.82696,-0.84812 -1.25625,-1.25625 z m -50.95761,3.50004 c -0.4559,0.56914 -0.89492,1.15228 -1.31517,1.74977 h 1.52239 v -1.74977 z m 1.9575,0 v 1.74977 h 1.74976 v -1.74977 z m 3.50005,0 v 1.74977 h 1.74976 v -1.74977 z m 3.50004,0 v 1.74977 h 1.74976 v -1.74977 z m 3.50005,0 v 1.74977 h 1.74976 v -1.74977 z m 3.50004,0 v 1.74977 h 1.74976 v -1.74977 z m 3.49953,0 v 1.74977 h 1.75028 v -1.74977 z m 3.50004,0 v 1.74977 h 1.75028 v -1.74977 z m 3.50005,0 v 1.74977 h 1.75028 v -1.74977 z m 3.50004,0 v 1.74977 h 1.75028 v -1.74977 z m 3.50005,0 v 1.74977 h 1.75028 v -1.74977 z m 3.50004,0 v 1.74977 h 1.74977 v -1.74977 z m 3.50005,0 v 1.74977 h 1.74976 v -1.74977 z m 3.50004,0 v 1.74977 h 1.74977 v -1.74977 z m 3.50005,0 v 1.74977 h 1.74976 v -1.74977 z m 3.50004,0 v 1.74977 h 1.74976 v -1.74977 z m 3.50005,0 v 1.74977 h 1.52187 c -0.42025,-0.59749 -0.85927,-1.18063 -1.31517,-1.74977 z m -56.0002,3.50005 v 1.74976 h 1.74976 v -1.74976 z m 3.50004,0 v 1.74976 h 1.74976 v -1.74976 z m 3.50005,0 v 1.74976 h 1.74976 v -1.74976 z m 3.50004,0 v 1.74976 h 1.74976 v -1.74976 z m 3.50005,0 v 1.74976 h 1.74976 v -1.74976 z m 3.50004,0 v 1.74976 h 1.74976 v -1.74976 z m 3.49953,0 v 1.74976 h 1.75028 v -1.74976 z m 3.50004,0 v 1.74976 h 1.75028 v -1.74976 z m 3.50005,0 v 1.74976 h 1.75028 v -1.74976 z m 3.50004,0 v 1.74976 h 1.75028 v -1.74976 z m 3.50005,0 v 1.74976 h 1.75028 v -1.74976 z m 3.50004,0 v 1.74976 h 1.74977 v -1.74976 z m 3.50005,0 v 1.74976 h 1.74976 v -1.74976 z m 3.50004,0 v 1.74976 h 1.74977 v -1.74976 z m 3.50005,0 v 1.74976 h 1.74976 v -1.74976 z m 3.50004,0 v 1.74976 h 1.74976 v -1.74976 z m 3.50005,0 v 1.74976 h 1.74976 v -1.74976 z m -57.74997,1.40663 c -0.0634,0.11426 -0.12752,0.22809 -0.18965,0.34313 h 0.18965 z m 61.25001,0.003 v 0.34055 h 0.1881 c -0.0617,-0.11417 -0.12521,-0.22714 -0.1881,-0.34055 z m -62.32023,2.09083 c -0.23857,0.50813 -0.46554,1.02293 -0.68006,1.54409 v 0.20568 h 1.75028 v -1.74977 z m 2.81999,0 v 1.74977 h 1.74976 v -1.74977 z m 3.50004,0 v 1.74977 h 1.74976 v -1.74977 z m 3.50005,0 v 1.74977 h 1.74976 v -1.74977 z m 3.50004,0 v 1.74977 h 1.74976 v -1.74977 z m 3.50005,0 v 1.74977 h 1.74976 v -1.74977 z m 3.50004,0 v 1.74977 h 1.74976 v -1.74977 z m 3.49953,0 v 1.74977 h 1.75028 v -1.74977 z m 3.50004,0 v 1.74977 h 1.75028 v -1.74977 z m 3.50005,0 v 1.74977 h 1.75028 v -1.74977 z m 3.50004,0 v 1.74977 h 1.75028 v -1.74977 z m 3.50005,0 v 1.74977 h 1.75028 v -1.74977 z m 3.50004,0 v 1.74977 h 1.74977 v -1.74977 z m 3.50005,0 v 1.74977 h 1.74976 v -1.74977 z m 3.50004,0 v 1.74977 h 1.74977 v -1.74977 z m 3.50005,0 v 1.74977 h 1.74976 v -1.74977 z m 3.50004,0 v 1.74977 h 1.74976 v -1.74977 z m 3.50005,0 v 1.74977 h 1.74976 v -1.74977 z m 3.50004,0 v 1.74977 h 1.74976 v -0.20309 c -0.21481,-0.52201 -0.44162,-1.03774 -0.68057,-1.54668 z m -63.00029,3.50005 v 1.74976 h 1.75028 v -1.74976 z m 3.50005,0 v 1.74976 h 1.74976 v -1.74976 z m 3.50004,0 v 1.74976 h 1.74976 v -1.74976 z m 3.50005,0 v 1.74976 h 1.74976 v -1.74976 z m 3.50004,0 v 1.74976 h 1.74976 v -1.74976 z m 3.50005,0 v 1.74976 h 1.74976 v -1.74976 z m 3.50004,0 v 1.74976 h 1.74976 v -1.74976 z m 3.49953,0 v 1.74976 h 1.75028 v -1.74976 z m 3.50004,0 v 1.74976 h 1.75028 v -1.74976 z m 3.50005,0 v 1.74976 h 1.75028 v -1.74976 z m 3.50004,0 v 1.74976 h 1.75028 v -1.74976 z m 3.50005,0 v 1.74976 h 1.75028 v -1.74976 z m 3.50004,0 v 1.74976 h 1.74977 v -1.74976 z m 3.50005,0 v 1.74976 h 1.74976 v -1.74976 z m 3.50004,0 v 1.74976 h 1.74977 v -1.74976 z m 3.50005,0 v 1.74976 h 1.74976 v -1.74976 z m 3.50004,0 v 1.74976 h 1.74976 v -1.74976 z m 3.50005,0 v 1.74976 h 1.74976 v -1.74976 z m 3.50004,0 v 1.74976 h 1.74976 v -1.74976 z m -63.00029,3.49953 v 1.75028 h 1.75028 v -1.75028 z m 3.50005,0 v 1.75028 h 1.74976 v -1.75028 z m 3.50004,0 v 1.75028 h 1.74976 v -1.75028 z m 3.50005,0 v 1.75028 h 1.74976 v -1.75028 z m 3.50004,0 v 1.75028 h 1.74976 v -1.75028 z m 3.50005,0 v 1.75028 h 1.74976 v -1.75028 z m 3.50004,0 v 1.75028 h 1.74976 v -1.75028 z m 3.49953,0 v 1.75028 h 1.75028 v -1.75028 z m 3.50004,0 v 1.75028 h 1.75028 v -1.75028 z m 3.50005,0 v 1.75028 h 1.75028 v -1.75028 z m 3.50004,0 v 1.75028 h 1.75028 v -1.75028 z m 3.50005,0 v 1.75028 h 1.75028 v -1.75028 z m 3.50004,0 v 1.75028 h 1.74977 v -1.75028 z m 3.50005,0 v 1.75028 h 1.74976 v -1.75028 z m 3.50004,0 v 1.75028 h 1.74977 v -1.75028 z m 3.50005,0 v 1.75028 h 1.74976 v -1.75028 z m 3.50004,0 v 1.75028 h 1.74976 v -1.75028 z m 3.50005,0 v 1.75028 h 1.74976 v -1.75028 z m 3.50004,0 v 1.75028 h 1.74976 v -1.75028 z m -64.75005,0.0558 c -0.1275,0.55989 -0.24125,1.12467 -0.34158,1.69447 h 0.34158 z m 68.24958,0.005 v 1.68982 h 0.34106 c -0.10006,-0.56823 -0.21399,-1.13145 -0.34106,-1.68982 z m -68.8542,3.43958 c -0.072,0.57909 -0.13018,1.16271 -0.17363,1.75028 h 0.77825 v -1.75028 z m 2.35438,0 v 1.75028 h 1.75028 v -1.75028 z m 3.50005,0 v 1.75028 h 1.74976 v -1.75028 z m 3.50004,0 v 1.75028 h 1.74976 v -1.75028 z m 3.50005,0 v 1.75028 h 1.74976 v -1.75028 z m 3.50004,0 v 1.75028 h 1.74976 v -1.75028 z m 3.50005,0 v 1.75028 h 1.74976 v -1.75028 z m 3.50004,0 v 1.75028 h 1.74976 v -1.75028 z m 3.49953,0 v 1.75028 h 1.75028 v -1.75028 z m 3.50004,0 v 1.75028 h 1.75028 v -1.75028 z m 3.50005,0 v 1.75028 h 1.75028 v -1.75028 z m 3.50004,0 v 1.75028 h 1.75028 v -1.75028 z m 3.50005,0 v 1.75028 h 1.75028 v -1.75028 z m 3.50004,0 v 1.75028 h 1.74977 v -1.75028 z m 3.50005,0 v 1.75028 h 1.74976 v -1.75028 z m 3.50004,0 v 1.75028 h 1.74977 v -1.75028 z m 3.50005,0 v 1.75028 h 1.74976 v -1.75028 z m 3.50004,0 v 1.75028 h 1.74976 v -1.75028 z m 3.50005,0 v 1.75028 h 1.74976 v -1.75028 z m 3.50004,0 v 1.75028 h 1.74976 v -1.75028 z m 3.49953,0 v 1.75028 h 0.77773 c -0.0434,-0.58757 -0.1016,-1.17119 -0.17363,-1.75028 z m -69.11413,3.50005 c -0.007,0.2909 -0.0109,0.58276 -0.0109,0.87539 0,0.29263 0.004,0.58399 0.0109,0.87489 h 0.86455 v -1.75028 z m 2.61431,0 v 1.75028 h 1.75028 v -1.75028 z m 3.50005,0 v 1.75028 h 1.74976 v -1.75028 z m 3.50004,0 v 1.75028 h 1.74976 v -1.75028 z m 3.50005,0 v 1.75028 h 1.74976 v -1.75028 z m 3.50004,0 v 1.75028 h 1.74976 v -1.75028 z m 3.50005,0 v 1.75028 h 1.74976 v -1.75028 z m 3.50004,0 v 1.75028 h 1.74976 v -1.75028 z m 3.49953,0 v 1.75028 h 1.75028 v -1.75028 z m 3.50004,0 v 1.75028 h 1.75028 v -1.75028 z m 3.50005,0 v 1.75028 h 1.75028 v -1.75028 z m 3.50004,0 v 1.75028 h 1.75028 v -1.75028 z m 3.50005,0 v 1.75028 h 1.75028 v -1.75028 z m 3.50004,0 v 1.75028 h 1.74977 v -1.75028 z m 3.50005,0 v 1.75028 h 1.74976 v -1.75028 z m 3.50004,0 v 1.75028 h 1.74977 v -1.75028 z m 3.50005,0 v 1.75028 h 1.74976 v -1.75028 z m 3.50004,0 v 1.75028 h 1.74976 v -1.75028 z m 3.50005,0 v 1.75028 h 1.74976 v -1.75028 z m 3.50004,0 v 1.75028 h 1.74976 v -1.75028 z m 3.49953,0 v 1.75028 h 0.86403 c 0.007,-0.2909 0.0109,-0.58226 0.0109,-0.87489 0,-0.29263 -0.004,-0.58449 -0.0109,-0.87539 z m -69.02783,3.50004 c 0.0435,0.58757 0.1016,1.17119 0.17363,1.75028 h 0.60462 v -1.75028 z m 2.52801,0 v 1.75028 h 1.75028 v -1.75028 z m 3.50005,0 v 1.75028 h 1.74976 v -1.75028 z m 3.50004,0 v 1.75028 h 1.74976 v -1.75028 z m 3.50005,0 v 1.75028 h 1.74976 v -1.75028 z m 3.50004,0 v 1.75028 h 1.74976 v -1.75028 z m 3.50005,0 v 1.75028 h 1.74976 v -1.75028 z m 3.50004,0 v 1.75028 h 1.74976 v -1.75028 z m 3.49953,0 v 1.75028 h 1.75028 v -1.75028 z m 3.50004,0 v 1.75028 h 1.75028 v -1.75028 z m 3.50005,0 v 1.75028 h 1.75028 v -1.75028 z m 3.50004,0 v 1.75028 h 1.75028 v -1.75028 z m 3.50005,0 v 1.75028 h 1.75028 v -1.75028 z m 3.50004,0 v 1.75028 h 1.74977 v -1.75028 z m 3.50005,0 v 1.75028 h 1.74976 v -1.75028 z m 3.50004,0 v 1.75028 h 1.74977 v -1.75028 z m 3.50005,0 v 1.75028 h 1.74976 v -1.75028 z m 3.50004,0 v 1.75028 h 1.74976 v -1.75028 z m 3.50005,0 v 1.75028 h 1.74976 v -1.75028 z m 3.50004,0 v 1.75028 h 1.74976 v -1.75028 z m 3.49953,0 v 1.75028 h 0.6041 c 0.072,-0.57909 0.13018,-1.16271 0.17363,-1.75028 z m -68.59116,3.50004 c 0.10033,0.5698 0.21408,1.13459 0.34158,1.69448 v -1.69448 z m 2.09134,0 v 1.75029 h 1.75028 v -1.75029 z m 3.50005,0 v 1.75029 h 1.74976 v -1.75029 z m 3.50004,0 v 1.75029 h 1.74976 v -1.75029 z m 3.50005,0 v 1.75029 h 1.74976 v -1.75029 z m 3.50004,0 v 1.75029 h 1.74976 v -1.75029 z m 3.50005,0 v 1.75029 h 1.74976 v -1.75029 z m 3.50004,0 v 1.75029 h 1.74976 v -1.75029 z m 3.49953,0 v 1.75029 h 1.75028 v -1.75029 z m 3.50004,0 v 1.75029 h 1.75028 v -1.75029 z m 3.50005,0 v 1.75029 h 1.75028 v -1.75029 z m 3.50004,0 v 1.75029 h 1.75028 v -1.75029 z m 3.50005,0 v 1.75029 h 1.75028 v -1.75029 z m 3.50004,0 v 1.75029 h 1.74977 v -1.75029 z m 3.50005,0 v 1.75029 h 1.74976 v -1.75029 z m 3.50004,0 v 1.75029 h 1.74977 v -1.75029 z m 3.50005,0 v 1.75029 h 1.74976 v -1.75029 z m 3.50004,0 v 1.75029 h 1.74976 v -1.75029 z m 3.50005,0 v 1.75029 h 1.74976 v -1.75029 z m 3.50004,0 v 1.75029 h 1.74976 v -1.75029 z m 3.49953,0 v 1.68982 c 0.12707,-0.55837 0.241,-1.12159 0.34106,-1.68982 z m -66.49982,3.50005 v 1.74976 h 1.75028 v -1.74976 z m 3.50005,0 v 1.74976 h 1.74976 v -1.74976 z m 3.50004,0 v 1.74976 h 1.74976 v -1.74976 z m 3.50005,0 v 1.74976 h 1.74976 v -1.74976 z m 3.50004,0 v 1.74976 h 1.74976 v -1.74976 z m 3.50005,0 v 1.74976 h 1.74976 v -1.74976 z m 3.50004,0 v 1.74976 h 1.74976 v -1.74976 z m 3.49953,0 v 1.74976 h 1.75028 v -1.74976 z m 3.50004,0 v 1.74976 h 1.75028 v -1.74976 z m 3.50005,0 v 1.74976 h 1.75028 v -1.74976 z m 3.50004,0 v 1.74976 h 1.75028 v -1.74976 z m 3.50005,0 v 1.74976 h 1.75028 v -1.74976 z m 3.50004,0 v 1.74976 h 1.74977 v -1.74976 z m 3.50005,0 v 1.74976 h 1.74976 v -1.74976 z m 3.50004,0 v 1.74976 h 1.74977 v -1.74976 z m 3.50005,0 v 1.74976 h 1.74976 v -1.74976 z m 3.50004,0 v 1.74976 h 1.74976 v -1.74976 z m 3.50005,0 v 1.74976 h 1.74976 v -1.74976 z m 3.50004,0 v 1.74976 h 1.74976 v -1.74976 z m -63.00029,3.50004 v 0.20568 c 0.21452,0.52116 0.44149,1.03596 0.68006,1.54409 h 1.07022 v -1.74977 z m 3.50005,0 v 1.74977 h 1.74976 v -1.74977 z m 3.50004,0 v 1.74977 h 1.74976 v -1.74977 z m 3.50005,0 v 1.74977 h 1.74976 v -1.74977 z m 3.50004,0 v 1.74977 h 1.74976 v -1.74977 z m 3.50005,0 v 1.74977 h 1.74976 v -1.74977 z m 3.50004,0 v 1.74977 h 1.74976 v -1.74977 z m 3.49953,0 v 1.74977 h 1.75028 v -1.74977 z m 3.50004,0 v 1.74977 h 1.75028 v -1.74977 z m 3.50005,0 v 1.74977 h 1.75028 v -1.74977 z m 3.50004,0 v 1.74977 h 1.75028 v -1.74977 z m 3.50005,0 v 1.74977 h 1.75028 v -1.74977 z m 3.50004,0 v 1.74977 h 1.74977 v -1.74977 z m 3.50005,0 v 1.74977 h 1.74976 v -1.74977 z m 3.50004,0 v 1.74977 h 1.74977 v -1.74977 z m 3.50005,0 v 1.74977 h 1.74976 v -1.74977 z m 3.50004,0 v 1.74977 h 1.74976 v -1.74977 z m 3.50005,0 v 1.74977 h 1.74976 v -1.74977 z m 3.50004,0 v 1.74977 h 1.06919 c 0.23895,-0.50894 0.46576,-1.02467 0.68057,-1.54668 v -0.20309 z m -61.43966,3.50005 c 0.0621,0.11504 0.12627,0.22887 0.18965,0.34313 v -0.34313 z m 1.93942,0 v 1.74976 h 1.74976 v -1.74976 z m 3.50004,0 v 1.74976 h 1.74976 v -1.74976 z m 3.50005,0 v 1.74976 h 1.74976 v -1.74976 z m 3.50004,0 v 1.74976 h 1.74976 v -1.74976 z m 3.50005,0 v 1.74976 h 1.74976 v -1.74976 z m 3.50004,0 v 1.74976 h 1.74976 v -1.74976 z m 3.49953,0 v 1.74976 h 1.75028 v -1.74976 z m 3.50004,0 v 1.74976 h 1.75028 v -1.74976 z m 3.50005,0 v 1.74976 h 1.75028 v -1.74976 z m 3.50004,0 v 1.74976 h 1.75028 v -1.74976 z m 3.50005,0 v 1.74976 h 1.75028 v -1.74976 z m 3.50004,0 v 1.74976 h 1.74977 v -1.74976 z m 3.50005,0 v 1.74976 h 1.74976 v -1.74976 z m 3.50004,0 v 1.74976 h 1.74977 v -1.74976 z m 3.50005,0 v 1.74976 h 1.74976 v -1.74976 z m 3.50004,0 v 1.74976 h 1.74976 v -1.74976 z m 3.50005,0 v 1.74976 h 1.74976 v -1.74976 z m 3.50004,0 v 0.34055 c 0.0629,-0.11341 0.12644,-0.22637 0.1881,-0.34055 z m -59.27287,3.50004 c 0.42025,0.59749 0.85927,1.18063 1.31517,1.74977 h 0.20722 v -1.74977 z m 3.27267,0 v 1.74977 h 1.74976 v -1.74977 z m 3.50005,0 v 1.74977 h 1.74976 v -1.74977 z m 3.50004,0 v 1.74977 h 1.74976 v -1.74977 z m 3.50005,0 v 1.74977 h 1.74976 v -1.74977 z m 3.50004,0 v 1.74977 h 1.74976 v -1.74977 z m 3.49953,0 v 1.74977 h 1.75028 v -1.74977 z m 3.50004,0 v 1.74977 h 1.75028 v -1.74977 z m 3.50005,0 v 1.74977 h 1.75028 v -1.74977 z m 3.50004,0 v 1.74977 h 1.75028 v -1.74977 z m 3.50005,0 v 1.74977 h 1.75028 v -1.74977 z m 3.50004,0 v 1.74977 h 1.74977 v -1.74977 z m 3.50005,0 v 1.74977 h 1.74976 v -1.74977 z m 3.50004,0 v 1.74977 h 1.74977 v -1.74977 z m 3.50005,0 v 1.74977 h 1.74976 v -1.74977 z m 3.50004,0 v 1.74977 h 1.74976 v -1.74977 z m 3.50005,0 v 1.74977 h 0.2067 c 0.4559,-0.56914 0.89492,-1.15228 1.31517,-1.74977 z m -52.50016,3.50005 v 0.49454 c 0.40781,0.42893 0.8268,0.84742 1.25574,1.25522 h 0.49402 v -1.74976 z m 3.50005,0 v 1.74976 h 1.74976 v -1.74976 z m 3.50004,0 v 1.74976 h 1.74976 v -1.74976 z m 3.50005,0 v 1.74976 h 1.74976 v -1.74976 z m 3.50004,0 v 1.74976 h 1.74976 v -1.74976 z m 3.49953,0 v 1.74976 h 1.75028 v -1.74976 z m 3.50004,0 v 1.74976 h 1.75028 v -1.74976 z m 3.50005,0 v 1.74976 h 1.75028 v -1.74976 z m 3.50004,0 v 1.74976 h 1.75028 v -1.74976 z m 3.50005,0 v 1.74976 h 1.75028 v -1.74976 z m 3.50004,0 v 1.74976 h 1.74977 v -1.74976 z m 3.50005,0 v 1.74976 h 1.74976 v -1.74976 z m 3.50004,0 v 1.74976 h 1.74977 v -1.74976 z m 3.50005,0 v 1.74976 h 1.74976 v -1.74976 z m 3.50004,0 v 1.74976 h 0.49351 c 0.42929,-0.40813 0.84813,-0.82696 1.25625,-1.25625 v -0.49351 z m -45.50006,3.50004 v 0.20723 c 0.56916,0.45591 1.15224,0.8949 1.74976,1.31516 v -1.52239 z m 3.50004,0 v 1.74977 h 1.74976 v -1.74977 z m 3.50005,0 v 1.74977 h 1.74976 v -1.74977 z m 3.50004,0 v 1.74977 h 1.74976 v -1.74977 z m 3.49953,0 v 1.74977 h 1.75028 v -1.74977 z m 3.50004,0 v 1.74977 h 1.75028 v -1.74977 z m 3.50005,0 v 1.74977 h 1.75028 v -1.74977 z m 3.50004,0 v 1.74977 h 1.75028 v -1.74977 z m 3.50005,0 v 1.74977 h 1.75028 v -1.74977 z m 3.50004,0 v 1.74977 h 1.74977 v -1.74977 z m 3.50005,0 v 1.74977 h 1.74976 v -1.74977 z m 3.50004,0 v 1.74977 h 1.74977 v -1.74977 z m 3.50005,0 v 1.52187 c 0.59741,-0.42021 1.18069,-0.8593 1.74976,-1.31516 v -0.20671 z m -37.09231,3.50005 c 0.11394,0.0632 0.22737,0.12718 0.34209,0.18913 v -0.18913 z m 2.09238,0 v 1.0697 c 0.50839,0.2387 1.02316,0.46545 1.5446,0.68006 h 0.20516 v -1.74976 z m 3.50004,0 v 1.74976 h 1.74976 v -1.74976 z m 3.49953,0 v 1.74976 h 1.75028 v -1.74976 z m 3.50004,0 v 1.74976 h 1.75028 v -1.74976 z m 3.50005,0 v 1.74976 h 1.75028 v -1.74976 z m 3.50004,0 v 1.74976 h 1.75028 v -1.74976 z m 3.50005,0 v 1.74976 h 1.75028 v -1.74976 z m 3.50004,0 v 1.74976 h 1.74977 v -1.74976 z m 3.50005,0 v 1.74976 h 0.20464 c 0.52158,-0.21467 1.03659,-0.44129 1.54512,-0.68006 v -1.0697 z m 3.50004,0 v 0.18862 c 0.11452,-0.0619 0.22784,-0.12554 0.34158,-0.18862 z m -24.44295,3.49953 c 0.55921,0.1273 1.12382,0.24136 1.69292,0.34158 v -0.34158 z m 3.44268,0 v 0.60409 c 0.57923,0.072 1.16257,0.13018 1.75028,0.17364 v -0.77773 z m 3.50005,0 v 0.86454 c 0.29073,0.007 0.58242,0.0109 0.87488,0.0109 0.29263,0 0.5845,-0.004 0.8754,-0.0109 v -0.86454 z m 3.50004,0 v 0.77773 c 0.58755,-0.0435 1.17121,-0.1016 1.75028,-0.17364 v -0.60409 z m 3.50005,0 v 0.34158 c 0.56891,-0.10019 1.13285,-0.21432 1.69188,-0.34158 z" />
        <path
           id="path60817"
           style="fill:#ffffff;fill-opacity:1;stroke:none;stroke-width:1.87241;stroke-linecap:round;stroke-linejoin:round;stroke-dasharray:none;stroke-opacity:1;stop-color:#000000"
           inkscape:transform-center-x="8.5742352e-05"
           inkscape:transform-center-y="-10.240799"
           d="m 382.38022,77.890296 a 6.8740766,6.8740766 0 0 0 -5.47369,3.420449 l -21.30548,36.902635 a 6.8740766,6.8740766 0 0 0 5.95313,10.31118 h 42.61144 a 6.8740766,6.8740766 0 0 0 5.95314,-10.31118 L 388.81279,81.310745 a 6.8740766,6.8740766 0 0 0 -6.43257,-3.420449 z m 0.47896,19.322395 10.51002,18.203369 h -21.01763 z"
           transform="matrix(1.0681414,0,0,1.0681414,17.382831,22.064976)" />
        <path
           id="path60840"
           style="fill:#00994a;fill-opacity:1;stroke:none;stroke-width:1.87241;stroke-linecap:round;stroke-linejoin:round;stroke-dasharray:none;stroke-opacity:1;stop-color:#000000"
           inkscape:transform-center-x="8.5742352e-05"
           inkscape:transform-center-y="-10.240799"
           d="m 382.85918,79.511502 c -1.74059,0 -3.52623,0.869884 -4.53512,2.617345 l -21.30452,36.902633 c -2.01773,3.49483 0.49961,7.85349 4.53512,7.85349 h 42.61145 c 4.03549,0 6.55284,-4.35869 4.53512,-7.85349 L 387.39429,82.128847 c -1.00891,-1.74749 -2.79456,-2.617345 -4.53511,-2.617345 z m 0,14.423944 13.34797,23.119234 h -26.69547 z"
           transform="matrix(1.0681414,0,0,1.0681414,17.382831,22.064976)" />
        <path
           id="path61952"
           style="fill:url(#radialGradient1901);fill-opacity:1;stroke:none;stroke-width:1.87241;stroke-linecap:round;stroke-linejoin:round;stroke-dasharray:none;stroke-opacity:1;stop-color:#000000"
           inkscape:transform-center-x="8.5742352e-05"
           inkscape:transform-center-y="-10.240799"
           d="m 382.85918,81.150608 c -1.16606,0 -2.4203,0.595194 -3.11518,1.79876 l -21.30451,36.902152 c -1.38964,2.40693 0.33581,5.39434 3.11517,5.39434 h 42.61145 c 2.77933,0 4.50478,-2.98746 3.11517,-5.39434 L 385.97483,82.949368 c -0.69492,-1.203624 -1.94963,-1.79876 -3.11565,-1.79876 z m 0,9.511462 16.18593,28.03124 h -32.36945 l 16.18009,-28.025298 z"
           sodipodi:nodetypes="sccssccsccccc"
           transform="matrix(1.0681414,0,0,1.0681414,17.382831,22.064976)" />
      </g>
      <g
         id="g89951">
        <rect
           style="fill:#000000;fill-opacity:0.216805;stroke:none;stroke-width:8.26101;stroke-linecap:round;stroke-linejoin:round;stroke-opacity:1;stop-color:#000000"
           id="rect89010"
           width="0.81793642"
           height="1.5000007"
           x="61.966"
           y="46.459438" />
        <rect
           style="fill:#000000;fill-opacity:0.216805;stroke:none;stroke-width:8.26104;stroke-linecap:round;stroke-linejoin:round;stroke-opacity:1;stop-color:#000000"
           id="rect89010-0"
           width="0.81793642"
           height="1.5000104"
           x="61.966"
           y="120.95943" />
      </g>
    </g>
    <g
       id="g89924"
       style="display:inline"
       transform="translate(-0.43802492,-13.948714)">
      <g
         id="g27017"
         transform="translate(-485.58448,-99.613317)">
        <circle
           style="fill:url(#radialGradient2246);fill-opacity:1;stroke:#cc0070;stroke-width:3;stroke-linecap:round;stroke-linejoin:round;stroke-dasharray:none;stroke-opacity:1;stop-color:#000000"
           id="circle2236"
           cx="638.17218"
           cy="186.5"
           r="36.5" />
        <path
           id="rect24491"
           style="fill:#ffa1e2;fill-opacity:1;stroke-width:1.41373;stroke-linecap:round;stroke-linejoin:round;stop-color:#000000"
           d="m 638.1719,151.4998 c -0.29246,0 -0.58415,0.004 -0.87488,0.0109 v 0.86455 h 1.75028 v -0.86455 c -0.2909,-0.007 -0.58277,-0.0109 -0.8754,-0.0109 z m -2.62465,0.0977 c -0.58771,0.0435 -1.17105,0.10158 -1.75028,0.17363 v 0.6041 h 1.75028 z m 5.24981,0 v 0.77773 h 1.75028 v -0.6041 c -0.57907,-0.072 -1.16273,-0.13018 -1.75028,-0.17363 z m -8.74985,0.43614 c -0.5691,0.10022 -1.13371,0.21428 -1.69292,0.34159 h 1.69292 z m 12.2499,0 v 0.34159 h 1.69188 c -0.55903,-0.12727 -1.12297,-0.2414 -1.69188,-0.34159 z m -19.45515,2.09135 c -0.52144,0.21461 -1.03621,0.44136 -1.5446,0.68006 v 1.07022 h 1.74976 v -1.75028 z m 1.95544,0 v 1.75028 h 1.74976 v -1.75028 z m 3.49953,0 v 1.75028 h 1.75028 v -1.75028 z m 3.50004,0 v 1.75028 h 1.75028 v -1.75028 z m 3.50005,0 v 1.75028 h 1.75028 v -1.75028 z m 3.50004,0 v 1.75028 h 1.75028 v -1.75028 z m 3.50005,0 v 1.75028 h 1.75028 v -1.75028 z m 3.50004,0 v 1.75028 h 1.74977 v -1.75028 z m 3.50005,0 v 1.75028 h 1.74976 v -1.07022 c -0.50853,-0.23877 -1.02354,-0.46539 -1.54512,-0.68006 z m -29.75013,1.56114 c -0.11486,0.062 -0.22853,0.12586 -0.34261,0.18914 h 0.34261 z m 33.25017,0 v 0.18914 h 0.3421 c -0.11395,-0.0632 -0.22737,-0.12717 -0.3421,-0.18914 z m -34.99993,1.9389 v 1.74977 h 1.74976 v -1.7498 z m 3.50005,0 v 1.74977 h 1.74976 v -1.7498 z m 3.50004,0 v 1.74977 h 1.74976 v -1.7498 z m 3.49953,0 v 1.74977 h 1.75028 v -1.7498 z m 3.50004,0 v 1.74977 h 1.75028 v -1.7498 z m 3.50005,0 v 1.74977 h 1.75028 v -1.7498 z m 3.50004,0 v 1.74977 h 1.75028 v -1.7498 z m 3.50005,0 v 1.74977 h 1.75028 v -1.7498 z m 3.50004,0 v 1.74977 h 1.74977 v -1.7498 z m 3.50005,0 v 1.74977 h 1.74976 v -1.7498 z m 3.50004,0 v 1.74977 h 1.74977 v -1.7498 z m -36.75021,0.22738 c -0.59752,0.42026 -1.1806,0.85925 -1.74976,1.31517 v 0.20722 h 1.74976 z m 40.25026,5.2e-4 v 1.52187 h 1.74976 v -0.20671 c -0.56907,-0.45586 -1.15235,-0.89495 -1.74976,-1.31516 z m -44.24433,3.27215 c -0.42894,0.4078 -0.84793,0.82629 -1.25574,1.25522 v 0.49454 h 1.74976 v -1.74976 z m 2.24431,0 v 1.74976 h 1.74976 v -1.74976 z m 3.50004,0 v 1.74976 h 1.74976 v -1.74976 z m 3.50005,0 v 1.74976 h 1.74976 v -1.74976 z m 3.50004,0 v 1.74976 h 1.74976 v -1.74976 z m 3.49953,0 v 1.74976 h 1.75028 v -1.74976 z m 3.50004,0 v 1.74976 h 1.75028 v -1.74976 z m 3.50005,0 v 1.74976 h 1.75028 v -1.74976 z m 3.50004,0 v 1.74976 h 1.75028 v -1.74976 z m 3.50005,0 v 1.74976 h 1.75028 v -1.74976 z m 3.50004,0 v 1.74976 h 1.74977 v -1.74976 z m 3.50005,0 v 1.74976 h 1.74976 v -1.74976 z m 3.50004,0 v 1.74976 h 1.74977 v -1.74976 z m 3.50005,0 v 1.74976 h 1.74976 v -1.74976 z m 3.50004,0 v 1.74976 h 1.74976 v -0.49351 c -0.40812,-0.42929 -0.82696,-0.84812 -1.25625,-1.25625 z m -50.95761,3.50004 c -0.4559,0.56914 -0.89492,1.15228 -1.31517,1.74977 h 1.52239 v -1.74977 z m 1.9575,0 v 1.74977 h 1.74976 v -1.74977 z m 3.50005,0 v 1.74977 h 1.74976 v -1.74977 z m 3.50004,0 v 1.74977 h 1.74976 v -1.74977 z m 3.50005,0 v 1.74977 h 1.74976 v -1.74977 z m 3.50004,0 v 1.74977 h 1.74976 v -1.74977 z m 3.49953,0 v 1.74977 h 1.75028 v -1.74977 z m 3.50004,0 v 1.74977 h 1.75028 v -1.74977 z m 3.50005,0 v 1.74977 h 1.75028 v -1.74977 z m 3.50004,0 v 1.74977 h 1.75028 v -1.74977 z m 3.50005,0 v 1.74977 h 1.75028 v -1.74977 z m 3.50004,0 v 1.74977 h 1.74977 v -1.74977 z m 3.50005,0 v 1.74977 h 1.74976 v -1.74977 z m 3.50004,0 v 1.74977 h 1.74977 v -1.74977 z m 3.50005,0 v 1.74977 h 1.74976 v -1.74977 z m 3.50004,0 v 1.74977 h 1.74976 v -1.74977 z m 3.50005,0 v 1.74977 h 1.52187 c -0.42025,-0.59749 -0.85927,-1.18063 -1.31517,-1.74977 z m -56.0002,3.50005 v 1.74976 h 1.74976 v -1.74976 z m 3.50004,0 v 1.74976 h 1.74976 v -1.74976 z m 3.50005,0 v 1.74976 h 1.74976 v -1.74976 z m 3.50004,0 v 1.74976 h 1.74976 v -1.74976 z m 3.50005,0 v 1.74976 h 1.74976 v -1.74976 z m 3.50004,0 v 1.74976 h 1.74976 v -1.74976 z m 3.49953,0 v 1.74976 h 1.75028 v -1.74976 z m 3.50004,0 v 1.74976 h 1.75028 v -1.74976 z m 3.50005,0 v 1.74976 h 1.75028 v -1.74976 z m 3.50004,0 v 1.74976 h 1.75028 v -1.74976 z m 3.50005,0 v 1.74976 h 1.75028 v -1.74976 z m 3.50004,0 v 1.74976 h 1.74977 v -1.74976 z m 3.50005,0 v 1.74976 h 1.74976 v -1.74976 z m 3.50004,0 v 1.74976 h 1.74977 v -1.74976 z m 3.50005,0 v 1.74976 h 1.74976 v -1.74976 z m 3.50004,0 v 1.74976 h 1.74976 v -1.74976 z m 3.50005,0 v 1.74976 h 1.74976 v -1.74976 z m -57.74997,1.40663 c -0.0634,0.11426 -0.12752,0.22809 -0.18965,0.34313 h 0.18965 z m 61.25001,0.003 v 0.34055 h 0.1881 c -0.0617,-0.11417 -0.12521,-0.22714 -0.1881,-0.34055 z m -62.32023,2.09083 c -0.23857,0.50813 -0.46554,1.02293 -0.68006,1.54409 v 0.20568 h 1.75028 v -1.74977 z m 2.81999,0 v 1.74977 h 1.74976 v -1.74977 z m 3.50004,0 v 1.74977 h 1.74976 v -1.74977 z m 3.50005,0 v 1.74977 h 1.74976 v -1.74977 z m 3.50004,0 v 1.74977 h 1.74976 v -1.74977 z m 3.50005,0 v 1.74977 h 1.74976 v -1.74977 z m 3.50004,0 v 1.74977 h 1.74976 v -1.74977 z m 3.49953,0 v 1.74977 h 1.75028 v -1.74977 z m 3.50004,0 v 1.74977 h 1.75028 v -1.74977 z m 3.50005,0 v 1.74977 h 1.75028 v -1.74977 z m 3.50004,0 v 1.74977 h 1.75028 v -1.74977 z m 3.50005,0 v 1.74977 h 1.75028 v -1.74977 z m 3.50004,0 v 1.74977 h 1.74977 v -1.74977 z m 3.50005,0 v 1.74977 h 1.74976 v -1.74977 z m 3.50004,0 v 1.74977 h 1.74977 v -1.74977 z m 3.50005,0 v 1.74977 h 1.74976 v -1.74977 z m 3.50004,0 v 1.74977 h 1.74976 v -1.74977 z m 3.50005,0 v 1.74977 h 1.74976 v -1.74977 z m 3.50004,0 v 1.74977 h 1.74976 v -0.20309 c -0.21481,-0.52201 -0.44162,-1.03774 -0.68057,-1.54668 z m -63.00029,3.50005 v 1.74976 h 1.75028 v -1.74976 z m 3.50005,0 v 1.74976 h 1.74976 v -1.74976 z m 3.50004,0 v 1.74976 h 1.74976 v -1.74976 z m 3.50005,0 v 1.74976 h 1.74976 v -1.74976 z m 3.50004,0 v 1.74976 h 1.74976 v -1.74976 z m 3.50005,0 v 1.74976 h 1.74976 v -1.74976 z m 3.50004,0 v 1.74976 h 1.74976 v -1.74976 z m 3.49953,0 v 1.74976 h 1.75028 v -1.74976 z m 3.50004,0 v 1.74976 h 1.75028 v -1.74976 z m 3.50005,0 v 1.74976 h 1.75028 v -1.74976 z m 3.50004,0 v 1.74976 h 1.75028 v -1.74976 z m 3.50005,0 v 1.74976 h 1.75028 v -1.74976 z m 3.50004,0 v 1.74976 h 1.74977 v -1.74976 z m 3.50005,0 v 1.74976 h 1.74976 v -1.74976 z m 3.50004,0 v 1.74976 h 1.74977 v -1.74976 z m 3.50005,0 v 1.74976 h 1.74976 v -1.74976 z m 3.50004,0 v 1.74976 h 1.74976 v -1.74976 z m 3.50005,0 v 1.74976 h 1.74976 v -1.74976 z m 3.50004,0 v 1.74976 h 1.74976 v -1.74976 z m -63.00029,3.49953 v 1.75028 h 1.75028 v -1.75028 z m 3.50005,0 v 1.75028 h 1.74976 v -1.75028 z m 3.50004,0 v 1.75028 h 1.74976 v -1.75028 z m 3.50005,0 v 1.75028 h 1.74976 v -1.75028 z m 3.50004,0 v 1.75028 h 1.74976 v -1.75028 z m 3.50005,0 v 1.75028 h 1.74976 v -1.75028 z m 3.50004,0 v 1.75028 h 1.74976 v -1.75028 z m 3.49953,0 v 1.75028 h 1.75028 v -1.75028 z m 3.50004,0 v 1.75028 h 1.75028 v -1.75028 z m 3.50005,0 v 1.75028 h 1.75028 v -1.75028 z m 3.50004,0 v 1.75028 h 1.75028 v -1.75028 z m 3.50005,0 v 1.75028 h 1.75028 v -1.75028 z m 3.50004,0 v 1.75028 h 1.74977 v -1.75028 z m 3.50005,0 v 1.75028 h 1.74976 v -1.75028 z m 3.50004,0 v 1.75028 h 1.74977 v -1.75028 z m 3.50005,0 v 1.75028 h 1.74976 v -1.75028 z m 3.50004,0 v 1.75028 h 1.74976 v -1.75028 z m 3.50005,0 v 1.75028 h 1.74976 v -1.75028 z m 3.50004,0 v 1.75028 h 1.74976 v -1.75028 z m -64.75005,0.0558 c -0.1275,0.55989 -0.24125,1.12467 -0.34158,1.69447 h 0.34158 z m 68.24958,0.005 v 1.68982 h 0.34106 c -0.10006,-0.56823 -0.21399,-1.13145 -0.34106,-1.68982 z m -68.8542,3.43958 c -0.072,0.57909 -0.13018,1.16271 -0.17363,1.75028 h 0.77825 v -1.75028 z m 2.35438,0 v 1.75028 h 1.75028 v -1.75028 z m 3.50005,0 v 1.75028 h 1.74976 v -1.75028 z m 3.50004,0 v 1.75028 h 1.74976 v -1.75028 z m 3.50005,0 v 1.75028 h 1.74976 v -1.75028 z m 3.50004,0 v 1.75028 h 1.74976 v -1.75028 z m 3.50005,0 v 1.75028 h 1.74976 v -1.75028 z m 3.50004,0 v 1.75028 h 1.74976 v -1.75028 z m 3.49953,0 v 1.75028 h 1.75028 v -1.75028 z m 3.50004,0 v 1.75028 h 1.75028 v -1.75028 z m 3.50005,0 v 1.75028 h 1.75028 v -1.75028 z m 3.50004,0 v 1.75028 h 1.75028 v -1.75028 z m 3.50005,0 v 1.75028 h 1.75028 v -1.75028 z m 3.50004,0 v 1.75028 h 1.74977 v -1.75028 z m 3.50005,0 v 1.75028 h 1.74976 v -1.75028 z m 3.50004,0 v 1.75028 h 1.74977 v -1.75028 z m 3.50005,0 v 1.75028 h 1.74976 v -1.75028 z m 3.50004,0 v 1.75028 h 1.74976 v -1.75028 z m 3.50005,0 v 1.75028 h 1.74976 v -1.75028 z m 3.50004,0 v 1.75028 h 1.74976 v -1.75028 z m 3.49953,0 v 1.75028 h 0.77773 c -0.0434,-0.58757 -0.1016,-1.17119 -0.17363,-1.75028 z m -69.11413,3.50005 c -0.007,0.2909 -0.0109,0.58276 -0.0109,0.87539 0,0.29263 0.004,0.58399 0.0109,0.87489 h 0.86455 v -1.75028 z m 2.61431,0 v 1.75028 h 1.75028 v -1.75028 z m 3.50005,0 v 1.75028 h 1.74976 v -1.75028 z m 3.50004,0 v 1.75028 h 1.74976 v -1.75028 z m 3.50005,0 v 1.75028 h 1.74976 v -1.75028 z m 3.50004,0 v 1.75028 h 1.74976 v -1.75028 z m 3.50005,0 v 1.75028 h 1.74976 v -1.75028 z m 3.50004,0 v 1.75028 h 1.74976 v -1.75028 z m 3.49953,0 v 1.75028 h 1.75028 v -1.75028 z m 3.50004,0 v 1.75028 h 1.75028 v -1.75028 z m 3.50005,0 v 1.75028 h 1.75028 v -1.75028 z m 3.50004,0 v 1.75028 h 1.75028 v -1.75028 z m 3.50005,0 v 1.75028 h 1.75028 v -1.75028 z m 3.50004,0 v 1.75028 h 1.74977 v -1.75028 z m 3.50005,0 v 1.75028 h 1.74976 v -1.75028 z m 3.50004,0 v 1.75028 h 1.74977 v -1.75028 z m 3.50005,0 v 1.75028 h 1.74976 v -1.75028 z m 3.50004,0 v 1.75028 h 1.74976 v -1.75028 z m 3.50005,0 v 1.75028 h 1.74976 v -1.75028 z m 3.50004,0 v 1.75028 h 1.74976 v -1.75028 z m 3.49953,0 v 1.75028 h 0.86403 c 0.007,-0.2909 0.0109,-0.58226 0.0109,-0.87489 0,-0.29263 -0.004,-0.58449 -0.0109,-0.87539 z m -69.02783,3.50004 c 0.0435,0.58757 0.1016,1.17119 0.17363,1.75028 h 0.60462 v -1.75028 z m 2.52801,0 v 1.75028 h 1.75028 v -1.75028 z m 3.50005,0 v 1.75028 h 1.74976 v -1.75028 z m 3.50004,0 v 1.75028 h 1.74976 v -1.75028 z m 3.50005,0 v 1.75028 h 1.74976 v -1.75028 z m 3.50004,0 v 1.75028 h 1.74976 v -1.75028 z m 3.50005,0 v 1.75028 h 1.74976 v -1.75028 z m 3.50004,0 v 1.75028 h 1.74976 v -1.75028 z m 3.49953,0 v 1.75028 h 1.75028 v -1.75028 z m 3.50004,0 v 1.75028 h 1.75028 v -1.75028 z m 3.50005,0 v 1.75028 h 1.75028 v -1.75028 z m 3.50004,0 v 1.75028 h 1.75028 v -1.75028 z m 3.50005,0 v 1.75028 h 1.75028 v -1.75028 z m 3.50004,0 v 1.75028 h 1.74977 v -1.75028 z m 3.50005,0 v 1.75028 h 1.74976 v -1.75028 z m 3.50004,0 v 1.75028 h 1.74977 v -1.75028 z m 3.50005,0 v 1.75028 h 1.74976 v -1.75028 z m 3.50004,0 v 1.75028 h 1.74976 v -1.75028 z m 3.50005,0 v 1.75028 h 1.74976 v -1.75028 z m 3.50004,0 v 1.75028 h 1.74976 v -1.75028 z m 3.49953,0 v 1.75028 h 0.6041 c 0.072,-0.57909 0.13018,-1.16271 0.17363,-1.75028 z m -68.59116,3.50004 c 0.10033,0.5698 0.21408,1.13459 0.34158,1.69448 v -1.69448 z m 2.09134,0 v 1.75029 h 1.75028 v -1.75029 z m 3.50005,0 v 1.75029 h 1.74976 v -1.75029 z m 3.50004,0 v 1.75029 h 1.74976 v -1.75029 z m 3.50005,0 v 1.75029 h 1.74976 v -1.75029 z m 3.50004,0 v 1.75029 h 1.74976 v -1.75029 z m 3.50005,0 v 1.75029 h 1.74976 v -1.75029 z m 3.50004,0 v 1.75029 h 1.74976 v -1.75029 z m 3.49953,0 v 1.75029 h 1.75028 v -1.75029 z m 3.50004,0 v 1.75029 h 1.75028 v -1.75029 z m 3.50005,0 v 1.75029 h 1.75028 v -1.75029 z m 3.50004,0 v 1.75029 h 1.75028 v -1.75029 z m 3.50005,0 v 1.75029 h 1.75028 v -1.75029 z m 3.50004,0 v 1.75029 h 1.74977 v -1.75029 z m 3.50005,0 v 1.75029 h 1.74976 v -1.75029 z m 3.50004,0 v 1.75029 h 1.74977 v -1.75029 z m 3.50005,0 v 1.75029 h 1.74976 v -1.75029 z m 3.50004,0 v 1.75029 h 1.74976 v -1.75029 z m 3.50005,0 v 1.75029 h 1.74976 v -1.75029 z m 3.50004,0 v 1.75029 h 1.74976 v -1.75029 z m 3.49953,0 v 1.68982 c 0.12707,-0.55837 0.241,-1.12159 0.34106,-1.68982 z m -66.49982,3.50005 v 1.74976 h 1.75028 v -1.74976 z m 3.50005,0 v 1.74976 h 1.74976 v -1.74976 z m 3.50004,0 v 1.74976 h 1.74976 v -1.74976 z m 3.50005,0 v 1.74976 h 1.74976 v -1.74976 z m 3.50004,0 v 1.74976 h 1.74976 v -1.74976 z m 3.50005,0 v 1.74976 h 1.74976 v -1.74976 z m 3.50004,0 v 1.74976 h 1.74976 v -1.74976 z m 3.49953,0 v 1.74976 h 1.75028 v -1.74976 z m 3.50004,0 v 1.74976 h 1.75028 v -1.74976 z m 3.50005,0 v 1.74976 h 1.75028 v -1.74976 z m 3.50004,0 v 1.74976 h 1.75028 v -1.74976 z m 3.50005,0 v 1.74976 h 1.75028 v -1.74976 z m 3.50004,0 v 1.74976 h 1.74977 v -1.74976 z m 3.50005,0 v 1.74976 h 1.74976 v -1.74976 z m 3.50004,0 v 1.74976 h 1.74977 v -1.74976 z m 3.50005,0 v 1.74976 h 1.74976 v -1.74976 z m 3.50004,0 v 1.74976 h 1.74976 v -1.74976 z m 3.50005,0 v 1.74976 h 1.74976 v -1.74976 z m 3.50004,0 v 1.74976 h 1.74976 v -1.74976 z m -63.00029,3.50004 v 0.20568 c 0.21452,0.52116 0.44149,1.03596 0.68006,1.54409 h 1.07022 v -1.74977 z m 3.50005,0 v 1.74977 h 1.74976 v -1.74977 z m 3.50004,0 v 1.74977 h 1.74976 v -1.74977 z m 3.50005,0 v 1.74977 h 1.74976 v -1.74977 z m 3.50004,0 v 1.74977 h 1.74976 v -1.74977 z m 3.50005,0 v 1.74977 h 1.74976 v -1.74977 z m 3.50004,0 v 1.74977 h 1.74976 v -1.74977 z m 3.49953,0 v 1.74977 h 1.75028 v -1.74977 z m 3.50004,0 v 1.74977 h 1.75028 v -1.74977 z m 3.50005,0 v 1.74977 h 1.75028 v -1.74977 z m 3.50004,0 v 1.74977 h 1.75028 v -1.74977 z m 3.50005,0 v 1.74977 h 1.75028 v -1.74977 z m 3.50004,0 v 1.74977 h 1.74977 v -1.74977 z m 3.50005,0 v 1.74977 h 1.74976 v -1.74977 z m 3.50004,0 v 1.74977 h 1.74977 v -1.74977 z m 3.50005,0 v 1.74977 h 1.74976 v -1.74977 z m 3.50004,0 v 1.74977 h 1.74976 v -1.74977 z m 3.50005,0 v 1.74977 h 1.74976 v -1.74977 z m 3.50004,0 v 1.74977 h 1.06919 c 0.23895,-0.50894 0.46576,-1.02467 0.68057,-1.54668 v -0.20309 z m -61.43966,3.50005 c 0.0621,0.11504 0.12627,0.22887 0.18965,0.34313 v -0.34313 z m 1.93942,0 v 1.74976 h 1.74976 v -1.74976 z m 3.50004,0 v 1.74976 h 1.74976 v -1.74976 z m 3.50005,0 v 1.74976 h 1.74976 v -1.74976 z m 3.50004,0 v 1.74976 h 1.74976 v -1.74976 z m 3.50005,0 v 1.74976 h 1.74976 v -1.74976 z m 3.50004,0 v 1.74976 h 1.74976 v -1.74976 z m 3.49953,0 v 1.74976 h 1.75028 v -1.74976 z m 3.50004,0 v 1.74976 h 1.75028 v -1.74976 z m 3.50005,0 v 1.74976 h 1.75028 v -1.74976 z m 3.50004,0 v 1.74976 h 1.75028 v -1.74976 z m 3.50005,0 v 1.74976 h 1.75028 v -1.74976 z m 3.50004,0 v 1.74976 h 1.74977 v -1.74976 z m 3.50005,0 v 1.74976 h 1.74976 v -1.74976 z m 3.50004,0 v 1.74976 h 1.74977 v -1.74976 z m 3.50005,0 v 1.74976 h 1.74976 v -1.74976 z m 3.50004,0 v 1.74976 h 1.74976 v -1.74976 z m 3.50005,0 v 1.74976 h 1.74976 v -1.74976 z m 3.50004,0 v 0.34055 c 0.0629,-0.11341 0.12644,-0.22637 0.1881,-0.34055 z m -59.27287,3.50004 c 0.42025,0.59749 0.85927,1.18063 1.31517,1.74977 h 0.20722 v -1.74977 z m 3.27267,0 v 1.74977 h 1.74976 v -1.74977 z m 3.50005,0 v 1.74977 h 1.74976 v -1.74977 z m 3.50004,0 v 1.74977 h 1.74976 v -1.74977 z m 3.50005,0 v 1.74977 h 1.74976 v -1.74977 z m 3.50004,0 v 1.74977 h 1.74976 v -1.74977 z m 3.49953,0 v 1.74977 h 1.75028 v -1.74977 z m 3.50004,0 v 1.74977 h 1.75028 v -1.74977 z m 3.50005,0 v 1.74977 h 1.75028 v -1.74977 z m 3.50004,0 v 1.74977 h 1.75028 v -1.74977 z m 3.50005,0 v 1.74977 h 1.75028 v -1.74977 z m 3.50004,0 v 1.74977 h 1.74977 v -1.74977 z m 3.50005,0 v 1.74977 h 1.74976 v -1.74977 z m 3.50004,0 v 1.74977 h 1.74977 v -1.74977 z m 3.50005,0 v 1.74977 h 1.74976 v -1.74977 z m 3.50004,0 v 1.74977 h 1.74976 v -1.74977 z m 3.50005,0 v 1.74977 h 0.2067 c 0.4559,-0.56914 0.89492,-1.15228 1.31517,-1.74977 z m -52.50016,3.50005 v 0.49454 c 0.40781,0.42893 0.8268,0.84742 1.25574,1.25522 h 0.49402 v -1.74976 z m 3.50005,0 v 1.74976 h 1.74976 v -1.74976 z m 3.50004,0 v 1.74976 h 1.74976 v -1.74976 z m 3.50005,0 v 1.74976 h 1.74976 v -1.74976 z m 3.50004,0 v 1.74976 h 1.74976 v -1.74976 z m 3.49953,0 v 1.74976 h 1.75028 v -1.74976 z m 3.50004,0 v 1.74976 h 1.75028 v -1.74976 z m 3.50005,0 v 1.74976 h 1.75028 v -1.74976 z m 3.50004,0 v 1.74976 h 1.75028 v -1.74976 z m 3.50005,0 v 1.74976 h 1.75028 v -1.74976 z m 3.50004,0 v 1.74976 h 1.74977 v -1.74976 z m 3.50005,0 v 1.74976 h 1.74976 v -1.74976 z m 3.50004,0 v 1.74976 h 1.74977 v -1.74976 z m 3.50005,0 v 1.74976 h 1.74976 v -1.74976 z m 3.50004,0 v 1.74976 h 0.49351 c 0.42929,-0.40813 0.84813,-0.82696 1.25625,-1.25625 v -0.49351 z m -45.50006,3.50004 v 0.20723 c 0.56916,0.45591 1.15224,0.8949 1.74976,1.31516 v -1.52239 z m 3.50004,0 v 1.74977 h 1.74976 v -1.74977 z m 3.50005,0 v 1.74977 h 1.74976 v -1.74977 z m 3.50004,0 v 1.74977 h 1.74976 v -1.74977 z m 3.49953,0 v 1.74977 h 1.75028 v -1.74977 z m 3.50004,0 v 1.74977 h 1.75028 v -1.74977 z m 3.50005,0 v 1.74977 h 1.75028 v -1.74977 z m 3.50004,0 v 1.74977 h 1.75028 v -1.74977 z m 3.50005,0 v 1.74977 h 1.75028 v -1.74977 z m 3.50004,0 v 1.74977 h 1.74977 v -1.74977 z m 3.50005,0 v 1.74977 h 1.74976 v -1.74977 z m 3.50004,0 v 1.74977 h 1.74977 v -1.74977 z m 3.50005,0 v 1.52187 c 0.59741,-0.42021 1.18069,-0.8593 1.74976,-1.31516 v -0.20671 z m -37.09231,3.50005 c 0.11394,0.0632 0.22737,0.12718 0.34209,0.18913 v -0.18913 z m 2.09238,0 v 1.0697 c 0.50839,0.2387 1.02316,0.46545 1.5446,0.68006 h 0.20516 v -1.74976 z m 3.50004,0 v 1.74976 h 1.74976 v -1.74976 z m 3.49953,0 v 1.74976 h 1.75028 v -1.74976 z m 3.50004,0 v 1.74976 h 1.75028 v -1.74976 z m 3.50005,0 v 1.74976 h 1.75028 v -1.74976 z m 3.50004,0 v 1.74976 h 1.75028 v -1.74976 z m 3.50005,0 v 1.74976 h 1.75028 v -1.74976 z m 3.50004,0 v 1.74976 h 1.74977 v -1.74976 z m 3.50005,0 v 1.74976 h 0.20464 c 0.52158,-0.21467 1.03659,-0.44129 1.54512,-0.68006 v -1.0697 z m 3.50004,0 v 0.18862 c 0.11452,-0.0619 0.22784,-0.12554 0.34158,-0.18862 z m -24.44295,3.49953 c 0.55921,0.1273 1.12382,0.24136 1.69292,0.34158 v -0.34158 z m 3.44268,0 v 0.60409 c 0.57923,0.072 1.16257,0.13018 1.75028,0.17364 v -0.77773 z m 3.50005,0 v 0.86454 c 0.29073,0.007 0.58242,0.0109 0.87488,0.0109 0.29263,0 0.5845,-0.004 0.8754,-0.0109 v -0.86454 z m 3.50004,0 v 0.77773 c 0.58755,-0.0435 1.17121,-0.1016 1.75028,-0.17364 v -0.60409 z m 3.50005,0 v 0.34158 c 0.56891,-0.10019 1.13285,-0.21432 1.69188,-0.34158 z" />
        <path
           id="rect16730"
           style="fill:#ffffff;fill-opacity:1;stroke:none;stroke-width:16.565;stroke-linecap:round;stroke-linejoin:round;stroke-opacity:1;stop-color:#000000"
           d="m 620.28702,162.00015 a 6.6145833,6.6145833 0 0 0 -6.6151,6.61459 v 35.77042 a 6.6145833,6.6145833 0 0 0 6.6151,6.61459 h 35.77042 a 6.6145833,6.6145833 0 0 0 6.61459,-6.61459 v -35.77042 a 6.6145833,6.6145833 0 0 0 -6.61459,-6.61459 z m 7.38456,13.99915 h 20.99975 v 20.99975 h -20.99975 z" />
        <path
           id="path16885"
           style="fill:#cc0070;fill-opacity:1;stroke:none;stroke-width:16.565;stroke-linecap:round;stroke-linejoin:round;stroke-opacity:1;stop-color:#000000"
           d="m 620.2865,163.7494 c -2.6776,0 -4.86482,2.18723 -4.86482,4.86482 v 35.77146 c 0,2.67761 2.18657,4.86327 4.86482,4.86327 h 35.77146 c 2.67823,2e-5 4.86327,-2.18502 4.86327,-4.86327 v -35.77146 c 0,-2.67823 -2.18568,-4.86482 -4.86327,-4.86482 z m 5.6348,10.49962 h 24.50031 v 24.50031 H 625.9213 Z" />
        <path
           id="path18411"
           style="fill:url(#radialGradient22180);fill-opacity:1;stroke:none;stroke-width:16.565;stroke-linecap:round;stroke-linejoin:round;stroke-opacity:1;stop-color:#000000"
           d="m 620.2865,165.49916 c -1.70206,1e-5 -3.11505,1.41301 -3.11505,3.11506 v 35.77146 c 0,1.70207 1.41169,3.11351 3.11505,3.11351 h 35.77146 c 1.70334,2e-5 3.11351,-1.41016 3.11351,-3.11351 v -35.77146 c 0,-1.70333 -1.41147,-3.11506 -3.11351,-3.11506 z m 3.88503,7.00009 h 27.99985 v 27.99985 h -27.99985 z" />
      </g>
      <g
         id="g89913">
        <rect
           style="fill:#000000;fill-opacity:0.216805;stroke:none;stroke-width:8.26101;stroke-linecap:round;stroke-linejoin:round;stroke-opacity:1;stop-color:#000000"
           id="rect89010-6"
           width="0.81793642"
           height="1.5000021"
           x="152.17873"
           y="48.886684" />
        <rect
           style="fill:#000000;fill-opacity:0.216805;stroke:none;stroke-width:8.26102;stroke-linecap:round;stroke-linejoin:round;stroke-opacity:1;stop-color:#000000"
           id="rect89010-0-2"
           width="0.81793642"
           height="1.5000024"
           x="152.17873"
           y="123.38668" />
      </g>
    </g>
    <g
       id="g89939"
       style="display:inline"
       transform="translate(-0.43802492,-13.948714)">
      <g
         id="g61338"
         transform="translate(-698.01954,194.1989)">
        <circle
           style="fill:url(#radialGradient2246-5);fill-opacity:1;stroke:#0055cc;stroke-width:3;stroke-linecap:round;stroke-linejoin:round;stroke-dasharray:none;stroke-opacity:1;stop-color:#000000"
           id="circle2236-2"
           cx="760.39429"
           cy="-24.525383"
           r="36.5" />
        <path
           id="rect24491-70"
           style="fill:#8ab1ff;fill-opacity:1;stroke-width:1.41373;stroke-linecap:round;stroke-linejoin:round;stop-color:#000000"
           d="m 760.39429,-59.525988 c -0.29246,0 -0.58415,0.004 -0.87488,0.0109 v 0.86455 h 1.75028 v -0.86455 c -0.2909,-0.007 -0.58277,-0.0109 -0.8754,-0.0109 z m -2.62465,0.0977 c -0.58771,0.0435 -1.17105,0.10158 -1.75028,0.17363 v 0.6041 h 1.75028 z m 5.24981,0 v 0.77773 h 1.75028 v -0.6041 c -0.57907,-0.072 -1.16273,-0.13018 -1.75028,-0.17363 z m -8.74985,0.43614 c -0.5691,0.10022 -1.13371,0.21428 -1.69292,0.34159 h 1.69292 z m 12.2499,0 v 0.34159 h 1.69188 c -0.55903,-0.12727 -1.12297,-0.2414 -1.69188,-0.34159 z m -19.45515,2.09135 c -0.52144,0.21461 -1.03621,0.44136 -1.5446,0.68006 v 1.07022 h 1.74976 v -1.75028 z m 1.95544,0 v 1.75028 h 1.74976 v -1.75028 z m 3.49953,0 v 1.75028 h 1.75028 v -1.75028 z m 3.50004,0 v 1.75028 h 1.75028 v -1.75028 z m 3.50005,0 v 1.75028 h 1.75028 v -1.75028 z m 3.50004,0 v 1.75028 h 1.75028 v -1.75028 z m 3.50005,0 v 1.75028 h 1.75028 v -1.75028 z m 3.50004,0 v 1.75028 h 1.74977 v -1.75028 z m 3.50005,0 v 1.75028 h 1.74976 v -1.07022 c -0.50853,-0.23877 -1.02354,-0.46539 -1.54512,-0.68006 z m -29.75013,1.56114 c -0.11486,0.062 -0.22853,0.12586 -0.34261,0.18914 h 0.34261 z m 33.25017,0 v 0.18914 h 0.3421 c -0.11395,-0.0632 -0.22737,-0.12717 -0.3421,-0.18914 z m -34.99993,1.9389 v 1.74977 h 1.74976 v -1.7498 z m 3.50005,0 v 1.74977 h 1.74976 v -1.7498 z m 3.50004,0 v 1.74977 h 1.74976 v -1.7498 z m 3.49953,0 v 1.74977 h 1.75028 v -1.7498 z m 3.50004,0 v 1.74977 h 1.75028 v -1.7498 z m 3.50005,0 v 1.74977 h 1.75028 v -1.7498 z m 3.50004,0 v 1.74977 h 1.75028 v -1.7498 z m 3.50005,0 v 1.74977 h 1.75028 v -1.7498 z m 3.50004,0 v 1.74977 h 1.74977 v -1.7498 z m 3.50005,0 v 1.74977 h 1.74976 v -1.7498 z m 3.50004,0 v 1.74977 h 1.74977 v -1.7498 z m -36.75021,0.22738 c -0.59752,0.42026 -1.1806,0.85925 -1.74976,1.31517 v 0.20722 h 1.74976 z m 40.25026,5.2e-4 v 1.52187 h 1.74976 v -0.20671 c -0.56907,-0.45586 -1.15235,-0.89495 -1.74976,-1.31516 z m -44.24433,3.27215 c -0.42894,0.4078 -0.84793,0.82629 -1.25574,1.25522 v 0.49454 h 1.74976 v -1.74976 z m 2.24431,0 v 1.74976 h 1.74976 v -1.74976 z m 3.50004,0 v 1.74976 h 1.74976 v -1.74976 z m 3.50005,0 v 1.74976 h 1.74976 v -1.74976 z m 3.50004,0 v 1.74976 h 1.74976 v -1.74976 z m 3.49953,0 v 1.74976 h 1.75028 v -1.74976 z m 3.50004,0 v 1.74976 h 1.75028 v -1.74976 z m 3.50005,0 v 1.74976 h 1.75028 v -1.74976 z m 3.50004,0 v 1.74976 h 1.75028 v -1.74976 z m 3.50005,0 v 1.74976 h 1.75028 v -1.74976 z m 3.50004,0 v 1.74976 h 1.74977 v -1.74976 z m 3.50005,0 v 1.74976 h 1.74976 v -1.74976 z m 3.50004,0 v 1.74976 h 1.74977 v -1.74976 z m 3.50005,0 v 1.74976 h 1.74976 v -1.74976 z m 3.50004,0 v 1.74976 h 1.74976 v -0.49351 c -0.40812,-0.42929 -0.82696,-0.84812 -1.25625,-1.25625 z m -50.95761,3.50004 c -0.4559,0.56914 -0.89492,1.15228 -1.31517,1.74977 h 1.52239 v -1.74977 z m 1.9575,0 v 1.74977 h 1.74976 v -1.74977 z m 3.50005,0 v 1.74977 h 1.74976 v -1.74977 z m 3.50004,0 v 1.74977 h 1.74976 v -1.74977 z m 3.50005,0 v 1.74977 h 1.74976 v -1.74977 z m 3.50004,0 v 1.74977 h 1.74976 v -1.74977 z m 3.49953,0 v 1.74977 h 1.75028 v -1.74977 z m 3.50004,0 v 1.74977 h 1.75028 v -1.74977 z m 3.50005,0 v 1.74977 h 1.75028 v -1.74977 z m 3.50004,0 v 1.74977 h 1.75028 v -1.74977 z m 3.50005,0 v 1.74977 h 1.75028 v -1.74977 z m 3.50004,0 v 1.74977 h 1.74977 v -1.74977 z m 3.50005,0 v 1.74977 h 1.74976 v -1.74977 z m 3.50004,0 v 1.74977 h 1.74977 v -1.74977 z m 3.50005,0 v 1.74977 h 1.74976 v -1.74977 z m 3.50004,0 v 1.74977 h 1.74976 v -1.74977 z m 3.50005,0 v 1.74977 h 1.52187 c -0.42025,-0.59749 -0.85927,-1.18063 -1.31517,-1.74977 z m -56.0002,3.50005 v 1.74976 h 1.74976 v -1.74976 z m 3.50004,0 v 1.74976 h 1.74976 v -1.74976 z m 3.50005,0 v 1.74976 h 1.74976 v -1.74976 z m 3.50004,0 v 1.74976 h 1.74976 v -1.74976 z m 3.50005,0 v 1.74976 h 1.74976 v -1.74976 z m 3.50004,0 v 1.74976 h 1.74976 v -1.74976 z m 3.49953,0 v 1.74976 h 1.75028 v -1.74976 z m 3.50004,0 v 1.74976 h 1.75028 v -1.74976 z m 3.50005,0 v 1.74976 h 1.75028 v -1.74976 z m 3.50004,0 v 1.74976 h 1.75028 v -1.74976 z m 3.50005,0 v 1.74976 h 1.75028 v -1.74976 z m 3.50004,0 v 1.74976 h 1.74977 v -1.74976 z m 3.50005,0 v 1.74976 h 1.74976 v -1.74976 z m 3.50004,0 v 1.74976 h 1.74977 v -1.74976 z m 3.50005,0 v 1.74976 h 1.74976 v -1.74976 z m 3.50004,0 v 1.74976 h 1.74976 v -1.74976 z m 3.50005,0 v 1.74976 h 1.74976 v -1.74976 z m -57.74997,1.40663 c -0.0634,0.11426 -0.12752,0.22809 -0.18965,0.34313 h 0.18965 z m 61.25001,0.003 v 0.34055 h 0.1881 c -0.0617,-0.11417 -0.12521,-0.22714 -0.1881,-0.34055 z m -62.32023,2.09083 c -0.23857,0.50813 -0.46554,1.02293 -0.68006,1.54409 v 0.20568 h 1.75028 v -1.74977 z m 2.81999,0 v 1.74977 h 1.74976 v -1.74977 z m 3.50004,0 v 1.74977 h 1.74976 v -1.74977 z m 3.50005,0 v 1.74977 h 1.74976 v -1.74977 z m 3.50004,0 v 1.74977 h 1.74976 v -1.74977 z m 3.50005,0 v 1.74977 h 1.74976 v -1.74977 z m 3.50004,0 v 1.74977 h 1.74976 v -1.74977 z m 3.49953,0 v 1.74977 h 1.75028 v -1.74977 z m 3.50004,0 v 1.74977 h 1.75028 v -1.74977 z m 3.50005,0 v 1.74977 h 1.75028 v -1.74977 z m 3.50004,0 v 1.74977 h 1.75028 v -1.74977 z m 3.50005,0 v 1.74977 h 1.75028 v -1.74977 z m 3.50004,0 v 1.74977 h 1.74977 v -1.74977 z m 3.50005,0 v 1.74977 h 1.74976 v -1.74977 z m 3.50004,0 v 1.74977 h 1.74977 v -1.74977 z m 3.50005,0 v 1.74977 h 1.74976 v -1.74977 z m 3.50004,0 v 1.74977 h 1.74976 v -1.74977 z m 3.50005,0 v 1.74977 h 1.74976 v -1.74977 z m 3.50004,0 v 1.74977 h 1.74976 v -0.20309 c -0.21481,-0.52201 -0.44162,-1.03774 -0.68057,-1.54668 z m -63.00029,3.50005 v 1.74976 h 1.75028 v -1.74976 z m 3.50005,0 v 1.74976 h 1.74976 v -1.74976 z m 3.50004,0 v 1.74976 h 1.74976 v -1.74976 z m 3.50005,0 v 1.74976 h 1.74976 v -1.74976 z m 3.50004,0 v 1.74976 h 1.74976 v -1.74976 z m 3.50005,0 v 1.74976 h 1.74976 v -1.74976 z m 3.50004,0 v 1.74976 h 1.74976 v -1.74976 z m 3.49953,0 v 1.74976 h 1.75028 v -1.74976 z m 3.50004,0 v 1.74976 h 1.75028 v -1.74976 z m 3.50005,0 v 1.74976 h 1.75028 v -1.74976 z m 3.50004,0 v 1.74976 h 1.75028 v -1.74976 z m 3.50005,0 v 1.74976 h 1.75028 v -1.74976 z m 3.50004,0 v 1.74976 h 1.74977 v -1.74976 z m 3.50005,0 v 1.74976 h 1.74976 v -1.74976 z m 3.50004,0 v 1.74976 h 1.74977 v -1.74976 z m 3.50005,0 v 1.74976 h 1.74976 v -1.74976 z m 3.50004,0 v 1.74976 h 1.74976 v -1.74976 z m 3.50005,0 v 1.74976 h 1.74976 v -1.74976 z m 3.50004,0 v 1.74976 h 1.74976 v -1.74976 z m -63.00029,3.49953 v 1.75028 h 1.75028 v -1.75028 z m 3.50005,0 v 1.75028 h 1.74976 v -1.75028 z m 3.50004,0 v 1.75028 h 1.74976 v -1.75028 z m 3.50005,0 v 1.75028 h 1.74976 v -1.75028 z m 3.50004,0 v 1.75028 h 1.74976 v -1.75028 z m 3.50005,0 v 1.75028 h 1.74976 v -1.75028 z m 3.50004,0 v 1.75028 h 1.74976 v -1.75028 z m 3.49953,0 v 1.75028 h 1.75028 v -1.75028 z m 3.50004,0 v 1.75028 h 1.75028 v -1.75028 z m 3.50005,0 v 1.75028 h 1.75028 v -1.75028 z m 3.50004,0 v 1.75028 h 1.75028 v -1.75028 z m 3.50005,0 v 1.75028 h 1.75028 v -1.75028 z m 3.50004,0 v 1.75028 h 1.74977 v -1.75028 z m 3.50005,0 v 1.75028 h 1.74976 v -1.75028 z m 3.50004,0 v 1.75028 h 1.74977 v -1.75028 z m 3.50005,0 v 1.75028 h 1.74976 v -1.75028 z m 3.50004,0 v 1.75028 h 1.74976 v -1.75028 z m 3.50005,0 v 1.75028 h 1.74976 v -1.75028 z m 3.50004,0 v 1.75028 h 1.74976 v -1.75028 z m -64.75005,0.0558 c -0.1275,0.55989 -0.24125,1.12467 -0.34158,1.69447 h 0.34158 z m 68.24958,0.005 v 1.68982 h 0.34106 c -0.10006,-0.56823 -0.21399,-1.13145 -0.34106,-1.68982 z m -68.8542,3.43958 c -0.072,0.57909 -0.13018,1.16271 -0.17363,1.75028 h 0.77825 v -1.75028 z m 2.35438,0 v 1.75028 h 1.75028 v -1.75028 z m 3.50005,0 v 1.75028 h 1.74976 v -1.75028 z m 3.50004,0 v 1.75028 h 1.74976 v -1.75028 z m 3.50005,0 v 1.75028 h 1.74976 v -1.75028 z m 3.50004,0 v 1.75028 h 1.74976 v -1.75028 z m 3.50005,0 v 1.75028 h 1.74976 v -1.75028 z m 3.50004,0 v 1.75028 h 1.74976 v -1.75028 z m 3.49953,0 v 1.75028 h 1.75028 v -1.75028 z m 3.50004,0 v 1.75028 h 1.75028 v -1.75028 z m 3.50005,0 v 1.75028 h 1.75028 v -1.75028 z m 3.50004,0 v 1.75028 h 1.75028 v -1.75028 z m 3.50005,0 v 1.75028 h 1.75028 v -1.75028 z m 3.50004,0 v 1.75028 h 1.74977 v -1.75028 z m 3.50005,0 v 1.75028 h 1.74976 v -1.75028 z m 3.50004,0 v 1.75028 h 1.74977 v -1.75028 z m 3.50005,0 v 1.75028 h 1.74976 v -1.75028 z m 3.50004,0 v 1.75028 h 1.74976 v -1.75028 z m 3.50005,0 v 1.75028 h 1.74976 v -1.75028 z m 3.50004,0 v 1.75028 h 1.74976 v -1.75028 z m 3.49953,0 v 1.75028 h 0.77773 c -0.0434,-0.58757 -0.1016,-1.17119 -0.17363,-1.75028 z m -69.11413,3.50005 c -0.007,0.2909 -0.0109,0.58276 -0.0109,0.87539 0,0.29263 0.004,0.58399 0.0109,0.87489 h 0.86455 v -1.75028 z m 2.61431,0 v 1.75028 h 1.75028 v -1.75028 z m 3.50005,0 v 1.75028 h 1.74976 v -1.75028 z m 3.50004,0 v 1.75028 h 1.74976 v -1.75028 z m 3.50005,0 v 1.75028 h 1.74976 v -1.75028 z m 3.50004,0 v 1.75028 h 1.74976 v -1.75028 z m 3.50005,0 v 1.75028 h 1.74976 v -1.75028 z m 3.50004,0 v 1.75028 h 1.74976 v -1.75028 z m 3.49953,0 v 1.75028 h 1.75028 v -1.75028 z m 3.50004,0 v 1.75028 h 1.75028 v -1.75028 z m 3.50005,0 v 1.75028 h 1.75028 v -1.75028 z m 3.50004,0 v 1.75028 h 1.75028 v -1.75028 z m 3.50005,0 v 1.75028 h 1.75028 v -1.75028 z m 3.50004,0 v 1.75028 h 1.74977 v -1.75028 z m 3.50005,0 v 1.75028 h 1.74976 v -1.75028 z m 3.50004,0 v 1.75028 h 1.74977 v -1.75028 z m 3.50005,0 v 1.75028 h 1.74976 v -1.75028 z m 3.50004,0 v 1.75028 h 1.74976 v -1.75028 z m 3.50005,0 v 1.75028 h 1.74976 v -1.75028 z m 3.50004,0 v 1.75028 h 1.74976 v -1.75028 z m 3.49953,0 v 1.75028 h 0.86403 c 0.007,-0.2909 0.0109,-0.58226 0.0109,-0.87489 0,-0.29263 -0.004,-0.58449 -0.0109,-0.87539 z m -69.02783,3.50004 c 0.0435,0.58757 0.1016,1.17119 0.17363,1.75028 h 0.60462 v -1.75028 z m 2.52801,0 v 1.75028 h 1.75028 v -1.75028 z m 3.50005,0 v 1.75028 h 1.74976 v -1.75028 z m 3.50004,0 v 1.75028 h 1.74976 v -1.75028 z m 3.50005,0 v 1.75028 h 1.74976 v -1.75028 z m 3.50004,0 v 1.75028 h 1.74976 v -1.75028 z m 3.50005,0 v 1.75028 h 1.74976 v -1.75028 z m 3.50004,0 v 1.75028 h 1.74976 v -1.75028 z m 3.49953,0 v 1.75028 h 1.75028 v -1.75028 z m 3.50004,0 v 1.75028 h 1.75028 v -1.75028 z m 3.50005,0 v 1.75028 h 1.75028 v -1.75028 z m 3.50004,0 v 1.75028 h 1.75028 v -1.75028 z m 3.50005,0 v 1.75028 h 1.75028 v -1.75028 z m 3.50004,0 v 1.75028 h 1.74977 v -1.75028 z m 3.50005,0 v 1.75028 h 1.74976 v -1.75028 z m 3.50004,0 v 1.75028 h 1.74977 v -1.75028 z m 3.50005,0 v 1.75028 h 1.74976 v -1.75028 z m 3.50004,0 v 1.75028 h 1.74976 v -1.75028 z m 3.50005,0 v 1.75028 h 1.74976 v -1.75028 z m 3.50004,0 v 1.75028 h 1.74976 v -1.75028 z m 3.49953,0 v 1.75028 h 0.6041 c 0.072,-0.57909 0.13018,-1.16271 0.17363,-1.75028 z m -68.59116,3.50004 c 0.10033,0.5698 0.21408,1.13459 0.34158,1.69448 v -1.69448 z m 2.09134,0 v 1.75029 h 1.75028 v -1.75029 z m 3.50005,0 v 1.75029 h 1.74976 v -1.75029 z m 3.50004,0 v 1.75029 h 1.74976 v -1.75029 z m 3.50005,0 v 1.75029 h 1.74976 v -1.75029 z m 3.50004,0 v 1.75029 h 1.74976 v -1.75029 z m 3.50005,0 v 1.75029 h 1.74976 v -1.75029 z m 3.50004,0 v 1.75029 h 1.74976 v -1.75029 z m 3.49953,0 v 1.75029 h 1.75028 v -1.75029 z m 3.50004,0 v 1.75029 h 1.75028 v -1.75029 z m 3.50005,0 v 1.75029 h 1.75028 v -1.75029 z m 3.50004,0 v 1.75029 h 1.75028 v -1.75029 z m 3.50005,0 v 1.75029 h 1.75028 v -1.75029 z m 3.50004,0 v 1.75029 h 1.74977 v -1.75029 z m 3.50005,0 v 1.75029 h 1.74976 v -1.75029 z m 3.50004,0 v 1.75029 h 1.74977 v -1.75029 z m 3.50005,0 v 1.75029 h 1.74976 v -1.75029 z m 3.50004,0 v 1.75029 h 1.74976 v -1.75029 z m 3.50005,0 v 1.75029 h 1.74976 v -1.75029 z m 3.50004,0 v 1.75029 h 1.74976 v -1.75029 z m 3.49953,0 v 1.68982 c 0.12707,-0.55837 0.241,-1.12159 0.34106,-1.68982 z m -66.49982,3.50005 v 1.74976 h 1.75028 v -1.74976 z m 3.50005,0 v 1.74976 h 1.74976 v -1.74976 z m 3.50004,0 v 1.74976 h 1.74976 v -1.74976 z m 3.50005,0 v 1.74976 h 1.74976 v -1.74976 z m 3.50004,0 v 1.74976 h 1.74976 v -1.74976 z m 3.50005,0 v 1.74976 h 1.74976 v -1.74976 z m 3.50004,0 v 1.74976 h 1.74976 v -1.74976 z m 3.49953,0 v 1.74976 h 1.75028 v -1.74976 z m 3.50004,0 v 1.74976 h 1.75028 v -1.74976 z m 3.50005,0 v 1.74976 h 1.75028 v -1.74976 z m 3.50004,0 v 1.74976 h 1.75028 v -1.74976 z m 3.50005,0 v 1.74976 h 1.75028 v -1.74976 z m 3.50004,0 v 1.74976 h 1.74977 v -1.74976 z m 3.50005,0 v 1.74976 h 1.74976 v -1.74976 z m 3.50004,0 v 1.74976 h 1.74977 v -1.74976 z m 3.50005,0 v 1.74976 h 1.74976 v -1.74976 z m 3.50004,0 v 1.74976 h 1.74976 v -1.74976 z m 3.50005,0 v 1.74976 h 1.74976 v -1.74976 z m 3.50004,0 v 1.74976 h 1.74976 v -1.74976 z m -63.00029,3.50004 v 0.20568 c 0.21452,0.52116 0.44149,1.03596 0.68006,1.5440898 h 1.07022 v -1.7497698 z m 3.50005,0 v 1.7497698 h 1.74976 v -1.7497698 z m 3.50004,0 v 1.7497698 h 1.74976 v -1.7497698 z m 3.50005,0 v 1.7497698 h 1.74976 v -1.7497698 z m 3.50004,0 v 1.7497698 h 1.74976 v -1.7497698 z m 3.50005,0 v 1.7497698 h 1.74976 v -1.7497698 z m 3.50004,0 v 1.7497698 h 1.74976 v -1.7497698 z m 3.49953,0 v 1.7497698 h 1.75028 v -1.7497698 z m 3.50004,0 v 1.7497698 h 1.75028 v -1.7497698 z m 3.50005,0 v 1.7497698 h 1.75028 v -1.7497698 z m 3.50004,0 v 1.7497698 h 1.75028 v -1.7497698 z m 3.50005,0 v 1.7497698 h 1.75028 v -1.7497698 z m 3.50004,0 v 1.7497698 h 1.74977 v -1.7497698 z m 3.50005,0 v 1.7497698 h 1.74976 v -1.7497698 z m 3.50004,0 v 1.7497698 h 1.74977 v -1.7497698 z m 3.50005,0 v 1.7497698 h 1.74976 v -1.7497698 z m 3.50004,0 v 1.7497698 h 1.74976 v -1.7497698 z m 3.50005,0 v 1.7497698 h 1.74976 v -1.7497698 z m 3.50004,0 v 1.7497698 h 1.06919 c 0.23895,-0.5089398 0.46576,-1.0246698 0.68057,-1.5466798 v -0.20309 z m -61.43966,3.5000498 c 0.0621,0.11504 0.12627,0.22887 0.18965,0.34313 v -0.34313 z m 1.93942,0 v 1.7497605 h 1.74976 v -1.7497605 z m 3.50004,0 v 1.7497605 h 1.74976 v -1.7497605 z m 3.50005,0 v 1.7497605 h 1.74976 v -1.7497605 z m 3.50004,0 v 1.7497605 h 1.74976 v -1.7497605 z m 3.50005,0 v 1.7497605 h 1.74976 v -1.7497605 z m 3.50004,0 v 1.7497605 h 1.74976 v -1.7497605 z m 3.49953,0 v 1.7497605 h 1.75028 v -1.7497605 z m 3.50004,0 v 1.7497605 h 1.75028 v -1.7497605 z m 3.50005,0 v 1.7497605 h 1.75028 v -1.7497605 z m 3.50004,0 v 1.7497605 h 1.75028 v -1.7497605 z m 3.50005,0 v 1.7497605 h 1.75028 v -1.7497605 z m 3.50004,0 v 1.7497605 h 1.74977 v -1.7497605 z m 3.50005,0 v 1.7497605 h 1.74976 v -1.7497605 z m 3.50004,0 v 1.7497605 h 1.74977 v -1.7497605 z m 3.50005,0 v 1.7497605 h 1.74976 v -1.7497605 z m 3.50004,0 v 1.7497605 h 1.74976 v -1.7497605 z m 3.50005,0 v 1.7497605 h 1.74976 v -1.7497605 z m 3.50004,0 v 0.34055 c 0.0629,-0.11341 0.12644,-0.22637 0.1881,-0.34055 z m -59.27287,3.5000405 c 0.42025,0.59749 0.85927,1.18063 1.31517,1.74977 h 0.20722 v -1.74977 z m 3.27267,0 v 1.74977 h 1.74976 v -1.74977 z m 3.50005,0 v 1.74977 h 1.74976 v -1.74977 z m 3.50004,0 v 1.74977 h 1.74976 v -1.74977 z m 3.50005,0 v 1.74977 h 1.74976 v -1.74977 z m 3.50004,0 v 1.74977 h 1.74976 v -1.74977 z m 3.49953,0 v 1.74977 h 1.75028 v -1.74977 z m 3.50004,0 v 1.74977 h 1.75028 v -1.74977 z m 3.50005,0 v 1.74977 h 1.75028 v -1.74977 z m 3.50004,0 v 1.74977 h 1.75028 v -1.74977 z m 3.50005,0 v 1.74977 h 1.75028 v -1.74977 z m 3.50004,0 v 1.74977 h 1.74977 v -1.74977 z m 3.50005,0 v 1.74977 h 1.74976 v -1.74977 z m 3.50004,0 v 1.74977 h 1.74977 v -1.74977 z m 3.50005,0 v 1.74977 h 1.74976 v -1.74977 z m 3.50004,0 v 1.74977 h 1.74976 v -1.74977 z m 3.50005,0 v 1.74977 h 0.2067 c 0.4559,-0.56914 0.89492,-1.15228 1.31517,-1.74977 z m -52.50016,3.50004995 v 0.49454 c 0.40781,0.42893 0.8268,0.84742 1.25574,1.25522 h 0.49402 v -1.74976 z m 3.50005,0 v 1.74976 h 1.74976 v -1.74976 z m 3.50004,0 v 1.74976 h 1.74976 v -1.74976 z m 3.50005,0 v 1.74976 h 1.74976 v -1.74976 z m 3.50004,0 v 1.74976 h 1.74976 v -1.74976 z m 3.49953,0 v 1.74976 h 1.75028 v -1.74976 z m 3.50004,0 v 1.74976 h 1.75028 v -1.74976 z m 3.50005,0 v 1.74976 h 1.75028 v -1.74976 z m 3.50004,0 v 1.74976 h 1.75028 v -1.74976 z m 3.50005,0 v 1.74976 h 1.75028 v -1.74976 z m 3.50004,0 v 1.74976 h 1.74977 v -1.74976 z m 3.50005,0 v 1.74976 h 1.74976 v -1.74976 z m 3.50004,0 v 1.74976 h 1.74977 v -1.74976 z m 3.50005,0 v 1.74976 h 1.74976 v -1.74976 z m 3.50004,0 v 1.74976 h 0.49351 c 0.42929,-0.40813 0.84813,-0.82696 1.25625,-1.25625 v -0.49351 z M 738.51966,2.6002022 v 0.20723 c 0.56916,0.45591 1.15224,0.8949001 1.74976,1.3151601 V 2.6002022 Z m 3.50004,0 v 1.7497701 h 1.74976 V 2.6002022 Z m 3.50005,0 v 1.7497701 h 1.74976 V 2.6002022 Z m 3.50004,0 v 1.7497701 h 1.74976 V 2.6002022 Z m 3.49953,0 v 1.7497701 h 1.75028 V 2.6002022 Z m 3.50004,0 v 1.7497701 h 1.75028 V 2.6002022 Z m 3.50005,0 v 1.7497701 h 1.75028 V 2.6002022 Z m 3.50004,0 v 1.7497701 h 1.75028 V 2.6002022 Z m 3.50005,0 v 1.7497701 h 1.75028 V 2.6002022 Z m 3.50004,0 v 1.7497701 h 1.74977 V 2.6002022 Z m 3.50005,0 v 1.7497701 h 1.74976 V 2.6002022 Z m 3.50004,0 v 1.7497701 h 1.74977 V 2.6002022 Z m 3.50005,0 v 1.5218701 c 0.59741,-0.42021 1.18069,-0.8593001 1.74976,-1.3151601 v -0.20671 z m -37.09231,3.5000501 c 0.11394,0.0632 0.22737,0.12718 0.34209,0.18913 v -0.18913 z m 2.09238,0 v 1.0697 c 0.50839,0.2387 1.02316,0.46545 1.5446,0.68006 h 0.20516 v -1.74976 z m 3.50004,0 v 1.74976 h 1.74976 v -1.74976 z m 3.49953,0 v 1.74976 h 1.75028 v -1.74976 z m 3.50004,0 v 1.74976 h 1.75028 v -1.74976 z m 3.50005,0 v 1.74976 h 1.75028 v -1.74976 z m 3.50004,0 v 1.74976 h 1.75028 v -1.74976 z m 3.50005,0 v 1.74976 h 1.75028 v -1.74976 z m 3.50004,0 v 1.74976 h 1.74977 v -1.74976 z m 3.50005,0 v 1.74976 h 0.20464 c 0.52158,-0.21467 1.03659,-0.44129 1.54512,-0.68006 v -1.0697 z m 3.50004,0 v 0.18862 c 0.11452,-0.0619 0.22784,-0.12554 0.34158,-0.18862 z m -24.44295,3.49953 c 0.55921,0.1273 1.12382,0.24136 1.69292,0.34158 v -0.34158 z m 3.44268,0 v 0.6040897 c 0.57923,0.072 1.16257,0.13018 1.75028,0.17364 V 9.5997823 Z m 3.50005,0 v 0.8645397 c 0.29073,0.007 0.58242,0.0109 0.87488,0.0109 0.29263,0 0.5845,-0.004 0.8754,-0.0109 V 9.5997823 Z m 3.50004,0 v 0.7777297 c 0.58755,-0.0435 1.17121,-0.1016 1.75028,-0.17364 V 9.5997823 Z m 3.50005,0 v 0.34158 c 0.56891,-0.10019 1.13285,-0.21432 1.69188,-0.34158 z" />
        <path
           inkscape:connector-curvature="0"
           style="fill:#ffffff;fill-opacity:1;stroke:none;stroke-width:0.739077"
           d="m 740.86967,-47.533569 -3.47156,3.474986 c -1.85911,1.860948 -1.85805,4.876516 0.002,6.736163 l 12.22941,12.224389 a 0.7939977,0.7939977 89.979294 0 1 4e-4,1.122707 l -12.23205,12.244716 c -1.85947,1.8613959 -1.85946,4.8772754 10e-6,6.7386671 l 3.47153,3.4751038 c 1.85835,1.86026635 4.87337,1.86026234 6.73171,-9e-6 l 12.2321,-12.2447709 a 0.7929308,0.7929308 179.99993 0 1 1.12196,-1e-6 l 12.23212,12.2447282 c 1.85836,1.86027963 4.87339,1.86031205 6.73179,7.24e-5 l 3.47157,-3.4749911 c 1.8595,-1.861338 1.85953,-4.8772068 6e-5,-6.7385815 l -12.23215,-12.244714 a 0.79401587,0.79401587 90.019806 0 1 3.9e-4,-1.12272 l 12.22902,-12.224669 c 1.86039,-1.859725 1.86144,-4.875314 0.002,-6.73633 l -3.47151,-3.475103 c -1.85835,-1.860268 -4.87337,-1.860267 -6.73171,3e-6 l -12.23206,12.244718 a 0.79293836,0.79293836 179.99968 0 1 -1.12196,6e-6 l -12.23195,-12.24433 c -1.85838,-1.860267 -4.87341,-1.860285 -6.73182,-4e-5 z"
           id="path56414"
           inkscape:path-effect="#path-effect56582;#path-effect58324"
           inkscape:original-d="m 744.2356,-50.902828 -10.20342,10.213504 16.15908,16.152444 -16.15888,16.1756095 10.20325,10.213763 16.15893,-16.1756655 16.15896,16.1756132 10.20343,-10.2135063 -16.159,-16.1755919 16.15859,-16.152831 -10.20323,-10.213771 -16.15889,16.175611 z" />
        <path
           inkscape:connector-curvature="0"
           style="fill:#0055cc;fill-opacity:1;stroke:none;stroke-width:0.739077"
           d="m 744.23633,-47.179687 c 0.76482,4e-6 1.53651,0.291772 2.12695,0.882812 l 12.23242,12.244141 c 0.99831,0.999316 2.5994,0.999296 3.59766,0 l 12.23242,-12.244141 c 1.16841,-1.169618 3.08751,-1.169562 4.25586,0 l 3.4707,3.474609 c 1.17003,1.171237 1.17069,3.091449 0,4.261719 l -12.22851,12.22461 c -0.998,0.99764 -1.00555,2.594986 -0.004,3.597656 l 12.23242,12.24414 c 1.1707,1.1718941 1.17077,3.0936995 0,4.2656254 l -3.4707,3.4746093 c -1.1685,1.1696521 -3.08737,1.169689 -4.25586,0 L 762.19336,-14.998047 c -0.99831,-0.999342 -2.59939,-0.999301 -3.59766,0 l -12.23242,12.2441407 c -1.16841,1.1696193 -3.0875,1.1695615 -4.25586,0 l -3.4707,-3.4746093 c -1.17072,-1.1719241 -1.17067,-3.093742 0,-4.2656254 l 12.23242,-12.24414 c 1.0016,-1.002634 0.99411,-2.60005 -0.004,-3.597656 l -12.22851,-12.22461 c -1.17061,-1.170124 -1.17006,-3.090507 0,-4.261719 l 3.4707,-3.474609 c 0.58956,-0.590145 1.36412,-0.882817 2.12891,-0.882812 z"
           id="path58326"
           inkscape:path-effect="#path-effect58330;#path-effect58334;#path-effect58336"
           inkscape:original-d="m 744.2356,-50.902828 -10.20342,10.213504 16.15908,16.152444 -16.15888,16.1756095 10.20325,10.213763 16.15893,-16.1756655 16.15896,16.1756132 10.20343,-10.2135063 -16.159,-16.1755919 16.15859,-16.152831 -10.20323,-10.213771 -16.15889,16.175611 z" />
        <path
           inkscape:connector-curvature="0"
           style="fill:url(#radialGradient60911);fill-opacity:1;stroke:none;stroke-width:0.739077"
           d="m 744.23633,-45.429687 c 0.31129,1e-6 0.63697,0.119143 0.88867,0.371093 l 12.23242,12.242188 c 1.68688,1.68859 4.38742,1.690502 6.07422,0.002 l 12.23242,-12.246094 c 0.47848,-0.478972 1.30093,-0.478861 1.7793,0 l 3.4707,3.47461 c 0.48097,0.481462 0.48099,1.308241 0,1.789062 l -12.22851,12.224609 c -1.68593,1.685328 -1.69734,4.377093 -0.004,6.072266 l 12.23242,12.2421875 c 0.48193,0.4824186 0.48205,1.3104494 0,1.7929688 l -3.4707,3.4726562 c -0.4786,0.4790701 -1.30069,0.4791039 -1.7793,0 L 763.43164,-16.234375 c -1.6869,-1.688641 -4.38741,-1.690511 -6.07422,-0.002 L 745.125,-3.9902344 c -0.47848,0.4789728 -1.30093,0.478862 -1.7793,0 l -3.4707,-3.4746093 c -0.48197,-0.4824621 -0.48188,-1.3086404 0,-1.7910157 l 12.23242,-12.2460936 c 1.69335,-1.695101 1.68206,-4.385041 -0.004,-6.070313 L 739.875,-39.796875 c -0.4808,-0.480607 -0.48101,-1.307582 0,-1.789062 l 3.4707,-3.472657 c 0.24993,-0.250169 0.57941,-0.371095 0.89063,-0.371093 z"
           id="path58338"
           inkscape:path-effect="#path-effect58342;#path-effect58346;#path-effect58350"
           inkscape:original-d="m 744.2356,-50.902828 -10.20342,10.213504 16.15908,16.152444 -16.15888,16.1756095 10.20325,10.213763 16.15893,-16.1756655 16.15896,16.1756132 10.20343,-10.2135063 -16.159,-16.1755919 16.15859,-16.152831 -10.20323,-10.213771 -16.15889,16.175611 z" />
      </g>
      <g
         id="g89928"
         transform="translate(-2.2070412e-4)">
        <rect
           style="fill:#000000;fill-opacity:0.216805;stroke:none;stroke-width:8.26101;stroke-linecap:round;stroke-linejoin:round;stroke-opacity:1;stop-color:#000000"
           id="rect89010-61"
           width="0.81793642"
           height="1.5000026"
           x="61.966"
           y="131.67352" />
        <rect
           style="fill:#000000;fill-opacity:0.216805;stroke:none;stroke-width:8.26099;stroke-linecap:round;stroke-linejoin:round;stroke-opacity:1;stop-color:#000000"
           id="rect89010-0-8"
           width="0.81793642"
           height="1.5"
           x="61.966"
           y="206.17352" />
      </g>
    </g>
    <g
       id="g89909"
       style="display:inline"
       transform="translate(-0.43802492,-13.948714)">
      <g
         id="g88706"
         transform="translate(-715.17689,192.3224)">
        <circle
           style="fill:url(#radialGradient61489);fill-opacity:1;stroke:#cc0000;stroke-width:3;stroke-linecap:round;stroke-linejoin:round;stroke-dasharray:none;stroke-opacity:1;stop-color:#000000"
           id="circle61445"
           cx="867.76428"
           cy="-22.648888"
           r="36.5" />
        <path
           id="path61447"
           style="fill:#ff7373;fill-opacity:1;stroke-width:1.41373;stroke-linecap:round;stroke-linejoin:round;stop-color:#000000"
           d="m 867.7643,-57.64949 c -0.29246,0 -0.58415,0.004 -0.87488,0.0109 v 0.86455 h 1.75028 v -0.86455 c -0.2909,-0.007 -0.58277,-0.0109 -0.8754,-0.0109 z m -2.62465,0.0977 c -0.58771,0.0435 -1.17105,0.10158 -1.75028,0.17363 v 0.6041 h 1.75028 z m 5.24981,0 v 0.77773 h 1.75028 v -0.6041 c -0.57907,-0.072 -1.16273,-0.13018 -1.75028,-0.17363 z m -8.74985,0.43614 c -0.5691,0.10022 -1.13371,0.21428 -1.69292,0.34159 h 1.69292 z m 12.2499,0 v 0.34159 h 1.69188 c -0.55903,-0.12727 -1.12297,-0.2414 -1.69188,-0.34159 z m -19.45515,2.09135 c -0.52144,0.21461 -1.03621,0.44136 -1.5446,0.68006 v 1.07022 h 1.74976 v -1.75028 z m 1.95544,0 v 1.75028 h 1.74976 v -1.75028 z m 3.49953,0 v 1.75028 h 1.75028 v -1.75028 z m 3.50004,0 v 1.75028 h 1.75028 v -1.75028 z m 3.50005,0 v 1.75028 h 1.75028 v -1.75028 z m 3.50004,0 v 1.75028 h 1.75028 v -1.75028 z m 3.50005,0 v 1.75028 h 1.75028 v -1.75028 z m 3.50004,0 v 1.75028 h 1.74977 v -1.75028 z m 3.50005,0 v 1.75028 h 1.74976 v -1.07022 c -0.50853,-0.23877 -1.02354,-0.46539 -1.54512,-0.68006 z m -29.75013,1.56114 c -0.11486,0.062 -0.22853,0.12586 -0.34261,0.18914 h 0.34261 z m 33.25017,0 v 0.18914 h 0.3421 c -0.11395,-0.0632 -0.22737,-0.12717 -0.3421,-0.18914 z m -34.99993,1.9389 v 1.74977 h 1.74976 v -1.7498 z m 3.50005,0 v 1.74977 h 1.74976 v -1.7498 z m 3.50004,0 v 1.74977 h 1.74976 v -1.7498 z m 3.49953,0 v 1.74977 h 1.75028 v -1.7498 z m 3.50004,0 v 1.74977 h 1.75028 v -1.7498 z m 3.50005,0 v 1.74977 h 1.75028 v -1.7498 z m 3.50004,0 v 1.74977 h 1.75028 v -1.7498 z m 3.50005,0 v 1.74977 h 1.75028 v -1.7498 z m 3.50004,0 v 1.74977 h 1.74977 v -1.7498 z m 3.50005,0 v 1.74977 h 1.74976 v -1.7498 z m 3.50004,0 v 1.74977 h 1.74977 v -1.7498 z m -36.75021,0.22738 c -0.59752,0.42026 -1.1806,0.85925 -1.74976,1.31517 v 0.20722 h 1.74976 z m 40.25026,5.2e-4 v 1.52187 h 1.74976 v -0.20671 c -0.56907,-0.45586 -1.15235,-0.89495 -1.74976,-1.31516 z m -44.24433,3.27215 c -0.42894,0.4078 -0.84793,0.82629 -1.25574,1.25522 v 0.49454 h 1.74976 v -1.74976 z m 2.24431,0 v 1.74976 h 1.74976 v -1.74976 z m 3.50004,0 v 1.74976 h 1.74976 v -1.74976 z m 3.50005,0 v 1.74976 h 1.74976 v -1.74976 z m 3.50004,0 v 1.74976 h 1.74976 v -1.74976 z m 3.49953,0 v 1.74976 h 1.75028 v -1.74976 z m 3.50004,0 v 1.74976 h 1.75028 v -1.74976 z m 3.50005,0 v 1.74976 h 1.75028 v -1.74976 z m 3.50004,0 v 1.74976 h 1.75028 v -1.74976 z m 3.50005,0 v 1.74976 h 1.75028 v -1.74976 z m 3.50004,0 v 1.74976 h 1.74977 v -1.74976 z m 3.50005,0 v 1.74976 h 1.74976 v -1.74976 z m 3.50004,0 v 1.74976 h 1.74977 v -1.74976 z m 3.50005,0 v 1.74976 h 1.74976 v -1.74976 z m 3.50004,0 v 1.74976 h 1.74976 v -0.49351 c -0.40812,-0.42929 -0.82696,-0.84812 -1.25625,-1.25625 z m -50.95761,3.50004 c -0.4559,0.56914 -0.89492,1.15228 -1.31517,1.74977 h 1.52239 v -1.74977 z m 1.9575,0 v 1.74977 h 1.74976 v -1.74977 z m 3.50005,0 v 1.74977 h 1.74976 v -1.74977 z m 3.50004,0 v 1.74977 h 1.74976 v -1.74977 z m 3.50005,0 v 1.74977 h 1.74976 v -1.74977 z m 3.50004,0 v 1.74977 h 1.74976 v -1.74977 z m 3.49953,0 v 1.74977 h 1.75028 v -1.74977 z m 3.50004,0 v 1.74977 h 1.75028 v -1.74977 z m 3.50005,0 v 1.74977 h 1.75028 v -1.74977 z m 3.50004,0 v 1.74977 h 1.75028 v -1.74977 z m 3.50005,0 v 1.74977 h 1.75028 v -1.74977 z m 3.50004,0 v 1.74977 h 1.74977 v -1.74977 z m 3.50005,0 v 1.74977 h 1.74976 v -1.74977 z m 3.50004,0 v 1.74977 h 1.74977 v -1.74977 z m 3.50005,0 v 1.74977 h 1.74976 v -1.74977 z m 3.50004,0 v 1.74977 h 1.74976 v -1.74977 z m 3.50005,0 v 1.74977 h 1.52187 c -0.42025,-0.59749 -0.85927,-1.18063 -1.31517,-1.74977 z m -56.0002,3.50005 v 1.74976 h 1.74976 v -1.74976 z m 3.50004,0 v 1.74976 h 1.74976 v -1.74976 z m 3.50005,0 v 1.74976 h 1.74976 v -1.74976 z m 3.50004,0 v 1.74976 h 1.74976 v -1.74976 z m 3.50005,0 v 1.74976 h 1.74976 v -1.74976 z m 3.50004,0 v 1.74976 h 1.74976 v -1.74976 z m 3.49953,0 v 1.74976 h 1.75028 v -1.74976 z m 3.50004,0 v 1.74976 h 1.75028 v -1.74976 z m 3.50005,0 v 1.74976 h 1.75028 v -1.74976 z m 3.50004,0 v 1.74976 h 1.75028 v -1.74976 z m 3.50005,0 v 1.74976 h 1.75028 v -1.74976 z m 3.50004,0 v 1.74976 h 1.74977 v -1.74976 z m 3.50005,0 v 1.74976 h 1.74976 v -1.74976 z m 3.50004,0 v 1.74976 h 1.74977 v -1.74976 z m 3.50005,0 v 1.74976 h 1.74976 v -1.74976 z m 3.50004,0 v 1.74976 h 1.74976 v -1.74976 z m 3.50005,0 v 1.74976 h 1.74976 v -1.74976 z m -57.74997,1.40663 c -0.0634,0.11426 -0.12752,0.22809 -0.18965,0.34313 h 0.18965 z m 61.25001,0.003 v 0.34055 h 0.1881 c -0.0617,-0.11417 -0.12521,-0.22714 -0.1881,-0.34055 z m -62.32023,2.09083 c -0.23857,0.50813 -0.46554,1.02293 -0.68006,1.54409 v 0.20568 h 1.75028 v -1.74977 z m 2.81999,0 v 1.74977 h 1.74976 v -1.74977 z m 3.50004,0 v 1.74977 h 1.74976 v -1.74977 z m 3.50005,0 v 1.74977 h 1.74976 v -1.74977 z m 3.50004,0 v 1.74977 h 1.74976 v -1.74977 z m 3.50005,0 v 1.74977 h 1.74976 v -1.74977 z m 3.50004,0 v 1.74977 h 1.74976 v -1.74977 z m 3.49953,0 v 1.74977 h 1.75028 v -1.74977 z m 3.50004,0 v 1.74977 h 1.75028 v -1.74977 z m 3.50005,0 v 1.74977 h 1.75028 v -1.74977 z m 3.50004,0 v 1.74977 h 1.75028 v -1.74977 z m 3.50005,0 v 1.74977 h 1.75028 v -1.74977 z m 3.50004,0 v 1.74977 h 1.74977 v -1.74977 z m 3.50005,0 v 1.74977 h 1.74976 v -1.74977 z m 3.50004,0 v 1.74977 h 1.74977 v -1.74977 z m 3.50005,0 v 1.74977 h 1.74976 v -1.74977 z m 3.50004,0 v 1.74977 h 1.74976 v -1.74977 z m 3.50005,0 v 1.74977 h 1.74976 v -1.74977 z m 3.50004,0 v 1.74977 h 1.74976 v -0.20309 c -0.21481,-0.52201 -0.44162,-1.03774 -0.68057,-1.54668 z m -63.00029,3.50005 v 1.74976 h 1.75028 v -1.74976 z m 3.50005,0 v 1.74976 h 1.74976 v -1.74976 z m 3.50004,0 v 1.74976 h 1.74976 v -1.74976 z m 3.50005,0 v 1.74976 h 1.74976 v -1.74976 z m 3.50004,0 v 1.74976 h 1.74976 v -1.74976 z m 3.50005,0 v 1.74976 h 1.74976 v -1.74976 z m 3.50004,0 v 1.74976 h 1.74976 v -1.74976 z m 3.49953,0 v 1.74976 h 1.75028 v -1.74976 z m 3.50004,0 v 1.74976 h 1.75028 v -1.74976 z m 3.50005,0 v 1.74976 h 1.75028 v -1.74976 z m 3.50004,0 v 1.74976 h 1.75028 v -1.74976 z m 3.50005,0 v 1.74976 h 1.75028 v -1.74976 z m 3.50004,0 v 1.74976 h 1.74977 v -1.74976 z m 3.50005,0 v 1.74976 h 1.74976 v -1.74976 z m 3.50004,0 v 1.74976 h 1.74977 v -1.74976 z m 3.50005,0 v 1.74976 h 1.74976 v -1.74976 z m 3.50004,0 v 1.74976 h 1.74976 v -1.74976 z m 3.50005,0 v 1.74976 h 1.74976 v -1.74976 z m 3.50004,0 v 1.74976 h 1.74976 v -1.74976 z m -63.00029,3.49953 v 1.75028 h 1.75028 v -1.75028 z m 3.50005,0 v 1.75028 h 1.74976 v -1.75028 z m 3.50004,0 v 1.75028 h 1.74976 v -1.75028 z m 3.50005,0 v 1.75028 h 1.74976 v -1.75028 z m 3.50004,0 v 1.75028 h 1.74976 v -1.75028 z m 3.50005,0 v 1.75028 h 1.74976 v -1.75028 z m 3.50004,0 v 1.75028 h 1.74976 v -1.75028 z m 3.49953,0 v 1.75028 h 1.75028 v -1.75028 z m 3.50004,0 v 1.75028 h 1.75028 v -1.75028 z m 3.50005,0 v 1.75028 h 1.75028 v -1.75028 z m 3.50004,0 v 1.75028 h 1.75028 v -1.75028 z m 3.50005,0 v 1.75028 h 1.75028 v -1.75028 z m 3.50004,0 v 1.75028 h 1.74977 v -1.75028 z m 3.50005,0 v 1.75028 h 1.74976 v -1.75028 z m 3.50004,0 v 1.75028 h 1.74977 v -1.75028 z m 3.50005,0 v 1.75028 h 1.74976 v -1.75028 z m 3.50004,0 v 1.75028 h 1.74976 v -1.75028 z m 3.50005,0 v 1.75028 h 1.74976 v -1.75028 z m 3.50004,0 v 1.75028 h 1.74976 v -1.75028 z m -64.75005,0.0558 c -0.1275,0.55989 -0.24125,1.12467 -0.34158,1.69447 h 0.34158 z m 68.24958,0.005 v 1.68982 h 0.34106 c -0.10006,-0.56823 -0.21399,-1.13145 -0.34106,-1.68982 z m -68.8542,3.43958 c -0.072,0.57909 -0.13018,1.16271 -0.17363,1.75028 h 0.77825 v -1.75028 z m 2.35438,0 v 1.75028 h 1.75028 v -1.75028 z m 3.50005,0 v 1.75028 h 1.74976 v -1.75028 z m 3.50004,0 v 1.75028 h 1.74976 v -1.75028 z m 3.50005,0 v 1.75028 h 1.74976 v -1.75028 z m 3.50004,0 v 1.75028 h 1.74976 v -1.75028 z m 3.50005,0 v 1.75028 h 1.74976 v -1.75028 z m 3.50004,0 v 1.75028 h 1.74976 v -1.75028 z m 3.49953,0 v 1.75028 h 1.75028 v -1.75028 z m 3.50004,0 v 1.75028 h 1.75028 v -1.75028 z m 3.50005,0 v 1.75028 h 1.75028 v -1.75028 z m 3.50004,0 v 1.75028 h 1.75028 v -1.75028 z m 3.50005,0 v 1.75028 h 1.75028 v -1.75028 z m 3.50004,0 v 1.75028 h 1.74977 v -1.75028 z m 3.50005,0 v 1.75028 h 1.74976 v -1.75028 z m 3.50004,0 v 1.75028 h 1.74977 v -1.75028 z m 3.50005,0 v 1.75028 h 1.74976 v -1.75028 z m 3.50004,0 v 1.75028 h 1.74976 v -1.75028 z m 3.50005,0 v 1.75028 h 1.74976 v -1.75028 z m 3.50004,0 v 1.75028 h 1.74976 v -1.75028 z m 3.49953,0 v 1.75028 h 0.77773 c -0.0434,-0.58757 -0.1016,-1.17119 -0.17363,-1.75028 z m -69.11413,3.50005 c -0.007,0.2909 -0.0109,0.58276 -0.0109,0.87539 0,0.29263 0.004,0.58399 0.0109,0.87489 h 0.86455 v -1.75028 z m 2.61431,0 v 1.75028 h 1.75028 v -1.75028 z m 3.50005,0 v 1.75028 h 1.74976 v -1.75028 z m 3.50004,0 v 1.75028 h 1.74976 v -1.75028 z m 3.50005,0 v 1.75028 h 1.74976 v -1.75028 z m 3.50004,0 v 1.75028 h 1.74976 v -1.75028 z m 3.50005,0 v 1.75028 h 1.74976 v -1.75028 z m 3.50004,0 v 1.75028 h 1.74976 v -1.75028 z m 3.49953,0 v 1.75028 h 1.75028 v -1.75028 z m 3.50004,0 v 1.75028 h 1.75028 v -1.75028 z m 3.50005,0 v 1.75028 h 1.75028 v -1.75028 z m 3.50004,0 v 1.75028 h 1.75028 v -1.75028 z m 3.50005,0 v 1.75028 h 1.75028 v -1.75028 z m 3.50004,0 v 1.75028 h 1.74977 v -1.75028 z m 3.50005,0 v 1.75028 h 1.74976 v -1.75028 z m 3.50004,0 v 1.75028 h 1.74977 v -1.75028 z m 3.50005,0 v 1.75028 h 1.74976 v -1.75028 z m 3.50004,0 v 1.75028 h 1.74976 v -1.75028 z m 3.50005,0 v 1.75028 h 1.74976 v -1.75028 z m 3.50004,0 v 1.75028 h 1.74976 v -1.75028 z m 3.49953,0 v 1.75028 h 0.86403 c 0.007,-0.2909 0.0109,-0.58226 0.0109,-0.87489 0,-0.29263 -0.004,-0.58449 -0.0109,-0.87539 z m -69.02783,3.50004 c 0.0435,0.58757 0.1016,1.17119 0.17363,1.75028 h 0.60462 v -1.75028 z m 2.52801,0 v 1.75028 h 1.75028 v -1.75028 z m 3.50005,0 v 1.75028 h 1.74976 v -1.75028 z m 3.50004,0 v 1.75028 h 1.74976 v -1.75028 z m 3.50005,0 v 1.75028 h 1.74976 v -1.75028 z m 3.50004,0 v 1.75028 h 1.74976 v -1.75028 z m 3.50005,0 v 1.75028 h 1.74976 v -1.75028 z m 3.50004,0 v 1.75028 h 1.74976 v -1.75028 z m 3.49953,0 v 1.75028 h 1.75028 v -1.75028 z m 3.50004,0 v 1.75028 h 1.75028 v -1.75028 z m 3.50005,0 v 1.75028 h 1.75028 v -1.75028 z m 3.50004,0 v 1.75028 h 1.75028 v -1.75028 z m 3.50005,0 v 1.75028 h 1.75028 v -1.75028 z m 3.50004,0 v 1.75028 h 1.74977 v -1.75028 z m 3.50005,0 v 1.75028 h 1.74976 v -1.75028 z m 3.50004,0 v 1.75028 h 1.74977 v -1.75028 z m 3.50005,0 v 1.75028 h 1.74976 v -1.75028 z m 3.50004,0 v 1.75028 h 1.74976 v -1.75028 z m 3.50005,0 v 1.75028 h 1.74976 v -1.75028 z m 3.50004,0 v 1.75028 h 1.74976 v -1.75028 z m 3.49953,0 v 1.75028 h 0.6041 c 0.072,-0.57909 0.13018,-1.16271 0.17363,-1.75028 z m -68.59116,3.50004 c 0.10033,0.5698 0.21408,1.13459 0.34158,1.69448 v -1.69448 z m 2.09134,0 v 1.75029 h 1.75028 v -1.75029 z m 3.50005,0 v 1.75029 h 1.74976 v -1.75029 z m 3.50004,0 v 1.75029 h 1.74976 v -1.75029 z m 3.50005,0 v 1.75029 h 1.74976 v -1.75029 z m 3.50004,0 v 1.75029 h 1.74976 v -1.75029 z m 3.50005,0 v 1.75029 h 1.74976 v -1.75029 z m 3.50004,0 v 1.75029 h 1.74976 v -1.75029 z m 3.49953,0 v 1.75029 h 1.75028 v -1.75029 z m 3.50004,0 v 1.75029 h 1.75028 v -1.75029 z m 3.50005,0 v 1.75029 h 1.75028 v -1.75029 z m 3.50004,0 v 1.75029 h 1.75028 v -1.75029 z m 3.50005,0 v 1.75029 h 1.75028 v -1.75029 z m 3.50004,0 v 1.75029 h 1.74977 v -1.75029 z m 3.50005,0 v 1.75029 h 1.74976 v -1.75029 z m 3.50004,0 v 1.75029 h 1.74977 v -1.75029 z m 3.50005,0 v 1.75029 h 1.74976 v -1.75029 z m 3.50004,0 v 1.75029 h 1.74976 v -1.75029 z m 3.50005,0 v 1.75029 h 1.74976 v -1.75029 z m 3.50004,0 v 1.75029 h 1.74976 v -1.75029 z m 3.49953,0 v 1.68982 c 0.12707,-0.55837 0.241,-1.12159 0.34106,-1.68982 z m -66.49982,3.50005 v 1.74976 h 1.75028 v -1.74976 z m 3.50005,0 v 1.74976 h 1.74976 v -1.74976 z m 3.50004,0 v 1.74976 h 1.74976 v -1.74976 z m 3.50005,0 v 1.74976 h 1.74976 v -1.74976 z m 3.50004,0 v 1.74976 h 1.74976 v -1.74976 z m 3.50005,0 v 1.74976 h 1.74976 v -1.74976 z m 3.50004,0 v 1.74976 h 1.74976 v -1.74976 z m 3.49953,0 v 1.74976 h 1.75028 v -1.74976 z m 3.50004,0 v 1.74976 h 1.75028 v -1.74976 z m 3.50005,0 v 1.74976 h 1.75028 v -1.74976 z m 3.50004,0 v 1.74976 h 1.75028 v -1.74976 z m 3.50005,0 v 1.74976 h 1.75028 v -1.74976 z m 3.50004,0 v 1.74976 h 1.74977 v -1.74976 z m 3.50005,0 v 1.74976 h 1.74976 v -1.74976 z m 3.50004,0 v 1.74976 h 1.74977 v -1.74976 z m 3.50005,0 v 1.74976 h 1.74976 v -1.74976 z m 3.50004,0 v 1.74976 h 1.74976 v -1.74976 z m 3.50005,0 v 1.74976 h 1.74976 v -1.74976 z m 3.50004,0 v 1.74976 h 1.74976 v -1.74976 z m -63.00029,3.50004 v 0.20568 c 0.21452,0.52116 0.44149,1.03596 0.68006,1.54409 h 1.07022 v -1.74977 z m 3.50005,0 v 1.74977 h 1.74976 v -1.74977 z m 3.50004,0 v 1.74977 h 1.74976 v -1.74977 z m 3.50005,0 v 1.74977 h 1.74976 v -1.74977 z m 3.50004,0 v 1.74977 h 1.74976 v -1.74977 z m 3.50005,0 v 1.74977 h 1.74976 v -1.74977 z m 3.50004,0 v 1.74977 h 1.74976 v -1.74977 z m 3.49953,0 v 1.74977 h 1.75028 v -1.74977 z m 3.50004,0 v 1.74977 h 1.75028 v -1.74977 z m 3.50005,0 v 1.74977 h 1.75028 v -1.74977 z m 3.50004,0 v 1.74977 h 1.75028 v -1.74977 z m 3.50005,0 v 1.74977 h 1.75028 v -1.74977 z m 3.50004,0 v 1.74977 h 1.74977 v -1.74977 z m 3.50005,0 v 1.74977 h 1.74976 v -1.74977 z m 3.50004,0 v 1.74977 h 1.74977 v -1.74977 z m 3.50005,0 v 1.74977 h 1.74976 v -1.74977 z m 3.50004,0 v 1.74977 h 1.74976 v -1.74977 z m 3.50005,0 v 1.74977 h 1.74976 v -1.74977 z m 3.50004,0 v 1.74977 h 1.06919 c 0.23895,-0.50894 0.46576,-1.02467 0.68057,-1.54668 v -0.20309 z m -61.43966,3.50005 c 0.0621,0.11504 0.12627,0.22887 0.18965,0.34313 v -0.34313 z m 1.93942,0 v 1.74976 h 1.74976 v -1.74976 z m 3.50004,0 v 1.74976 h 1.74976 v -1.74976 z m 3.50005,0 v 1.74976 h 1.74976 v -1.74976 z m 3.50004,0 v 1.74976 h 1.74976 v -1.74976 z m 3.50005,0 v 1.74976 h 1.74976 v -1.74976 z m 3.50004,0 v 1.74976 h 1.74976 v -1.74976 z m 3.49953,0 v 1.74976 h 1.75028 v -1.74976 z m 3.50004,0 v 1.74976 h 1.75028 v -1.74976 z m 3.50005,0 v 1.74976 h 1.75028 v -1.74976 z m 3.50004,0 v 1.74976 h 1.75028 v -1.74976 z m 3.50005,0 v 1.74976 h 1.75028 v -1.74976 z m 3.50004,0 v 1.74976 h 1.74977 v -1.74976 z m 3.50005,0 v 1.74976 h 1.74976 v -1.74976 z m 3.50004,0 v 1.74976 h 1.74977 v -1.74976 z m 3.50005,0 v 1.74976 h 1.74976 v -1.74976 z m 3.50004,0 v 1.74976 h 1.74976 v -1.74976 z m 3.50005,0 v 1.74976 h 1.74976 v -1.74976 z m 3.50004,0 v 0.34055 c 0.0629,-0.11341 0.12644,-0.22637 0.1881,-0.34055 z m -59.27287,3.50004 c 0.42025,0.59749 0.85927,1.18063 1.31517,1.74977 h 0.20722 v -1.74977 z m 3.27267,0 v 1.74977 h 1.74976 v -1.74977 z m 3.50005,0 v 1.74977 h 1.74976 v -1.74977 z m 3.50004,0 v 1.74977 h 1.74976 v -1.74977 z m 3.50005,0 v 1.74977 h 1.74976 v -1.74977 z m 3.50004,0 v 1.74977 h 1.74976 v -1.74977 z m 3.49953,0 v 1.74977 h 1.75028 v -1.74977 z m 3.50004,0 v 1.74977 h 1.75028 v -1.74977 z m 3.50005,0 v 1.74977 h 1.75028 v -1.74977 z m 3.50004,0 v 1.74977 h 1.75028 v -1.74977 z m 3.50005,0 v 1.74977 h 1.75028 v -1.74977 z m 3.50004,0 v 1.74977 h 1.74977 v -1.74977 z m 3.50005,0 v 1.74977 h 1.74976 v -1.74977 z m 3.50004,0 v 1.74977 h 1.74977 v -1.74977 z m 3.50005,0 v 1.74977 h 1.74976 v -1.74977 z m 3.50004,0 v 1.74977 h 1.74976 v -1.74977 z m 3.50005,0 v 1.74977 h 0.2067 c 0.4559,-0.56914 0.89492,-1.15228 1.31517,-1.74977 z M 842.38962,0.97666 V 1.4712 c 0.40781,0.42893 0.8268,0.84742 1.25574,1.25522 h 0.49402 V 0.97666 Z m 3.50005,0 v 1.74976 h 1.74976 V 0.97666 Z m 3.50004,0 v 1.74976 h 1.74976 V 0.97666 Z m 3.50005,0 v 1.74976 h 1.74976 V 0.97666 Z m 3.50004,0 v 1.74976 h 1.74976 V 0.97666 Z m 3.49953,0 v 1.74976 h 1.75028 V 0.97666 Z m 3.50004,0 v 1.74976 h 1.75028 V 0.97666 Z m 3.50005,0 v 1.74976 h 1.75028 V 0.97666 Z m 3.50004,0 v 1.74976 h 1.75028 V 0.97666 Z m 3.50005,0 v 1.74976 h 1.75028 V 0.97666 Z m 3.50004,0 v 1.74976 h 1.74977 V 0.97666 Z m 3.50005,0 v 1.74976 h 1.74976 V 0.97666 Z m 3.50004,0 v 1.74976 h 1.74977 V 0.97666 Z m 3.50005,0 v 1.74976 h 1.74976 V 0.97666 Z m 3.50004,0 v 1.74976 h 0.49351 c 0.42929,-0.40813 0.84813,-0.82696 1.25625,-1.25625 V 0.97666 Z M 845.88967,4.4767 v 0.20723 c 0.56916,0.45591 1.15224,0.8949 1.74976,1.31516 V 4.4767 Z m 3.50004,0 v 1.74977 h 1.74976 V 4.4767 Z m 3.50005,0 v 1.74977 h 1.74976 V 4.4767 Z m 3.50004,0 v 1.74977 h 1.74976 V 4.4767 Z m 3.49953,0 v 1.74977 h 1.75028 V 4.4767 Z m 3.50004,0 v 1.74977 h 1.75028 V 4.4767 Z m 3.50005,0 v 1.74977 h 1.75028 V 4.4767 Z m 3.50004,0 v 1.74977 h 1.75028 V 4.4767 Z m 3.50005,0 v 1.74977 h 1.75028 V 4.4767 Z m 3.50004,0 v 1.74977 h 1.74977 V 4.4767 Z m 3.50005,0 v 1.74977 h 1.74976 V 4.4767 Z m 3.50004,0 v 1.74977 h 1.74977 V 4.4767 Z m 3.50005,0 v 1.52187 c 0.59741,-0.42021 1.18069,-0.8593 1.74976,-1.31516 V 4.4767 Z m -37.09231,3.50005 c 0.11394,0.0632 0.22737,0.12718 0.34209,0.18913 V 7.97675 Z m 2.09238,0 v 1.0697 c 0.50839,0.2387 1.02316,0.46545 1.5446,0.68006 h 0.20516 V 7.97675 Z m 3.50004,0 v 1.74976 h 1.74976 V 7.97675 Z m 3.49953,0 v 1.74976 h 1.75028 V 7.97675 Z m 3.50004,0 v 1.74976 h 1.75028 V 7.97675 Z m 3.50005,0 v 1.74976 h 1.75028 V 7.97675 Z m 3.50004,0 v 1.74976 h 1.75028 V 7.97675 Z m 3.50005,0 v 1.74976 h 1.75028 V 7.97675 Z m 3.50004,0 v 1.74976 h 1.74977 V 7.97675 Z m 3.50005,0 v 1.74976 h 0.20464 c 0.52158,-0.21467 1.03659,-0.44129 1.54512,-0.68006 v -1.0697 z m 3.50004,0 v 0.18862 c 0.11452,-0.0619 0.22784,-0.12554 0.34158,-0.18862 z m -24.44295,3.49953 c 0.55921,0.1273 1.12382,0.24136 1.69292,0.34158 v -0.34158 z m 3.44268,0 v 0.60409 c 0.57923,0.072 1.16257,0.13018 1.75028,0.17364 v -0.77773 z m 3.50005,0 v 0.86454 c 0.29073,0.007 0.58242,0.0109 0.87488,0.0109 0.29263,0 0.5845,-0.004 0.8754,-0.0109 v -0.86454 z m 3.50004,0 v 0.77773 c 0.58755,-0.0435 1.17121,-0.1016 1.75028,-0.17364 v -0.60409 z m 3.50005,0 v 0.34158 c 0.56891,-0.10019 1.13285,-0.21432 1.69188,-0.34158 z" />
        <path
           id="path85085"
           style="fill:#ffffff;fill-opacity:1;stroke:none;stroke-width:17.8786;stroke-linecap:round;stroke-linejoin:round;stroke-opacity:1;stop-color:#000000"
           d="m 867.76409,-50.593294 a 27.944529,27.944529 0 0 0 -27.94455,27.944547 27.944529,27.944529 0 0 0 27.94455,27.9445478 27.944529,27.944529 0 0 0 27.94454,-27.9445478 27.944529,27.944529 0 0 0 -27.94454,-27.944547 z m -5.2e-4,13.999662 c 7.63024,0 13.9454,6.315165 13.9454,13.945402 0,7.630241 -6.31394,13.943335 -13.9454,13.943335 -7.63145,0 -13.94333,-6.311878 -13.94333,-13.943335 0,-7.631454 6.31309,-13.945402 13.94333,-13.945402 z" />
        <path
           id="circle85191"
           style="fill:#cc0000;fill-opacity:1;stroke:none;stroke-width:17.8786;stroke-linecap:round;stroke-linejoin:round;stroke-opacity:1;stop-color:#000000"
           d="m 867.76357,-48.84353 c -14.45794,0 -26.19323,11.737214 -26.19323,26.1953 0,14.4580899 11.73514,26.1932333 26.19323,26.1932333 14.4581,0 26.1953,-11.7352954 26.1953,-26.1932333 0,-14.457934 -11.73735,-26.1953 -26.1953,-26.1953 z m 0,10.499617 c 8.60563,0 15.69517,7.090061 15.69517,15.695683 0,8.605626 -7.08848,15.693099 -15.69517,15.693099 -8.60669,0 -15.6931,-7.086408 -15.6931,-15.693099 0,-8.606687 7.08748,-15.695683 15.6931,-15.695683 z" />
        <path
           id="path86230"
           style="fill:url(#radialGradient88072);fill-opacity:1;stroke:none;stroke-width:17.8786;stroke-linecap:round;stroke-linejoin:round;stroke-opacity:1;stop-color:#000000"
           d="m 867.76357,-47.093766 c -13.48256,0 -24.44347,10.962684 -24.44347,24.445536 0,13.4828567 10.96061,24.4429525 24.44347,24.4429525 13.48286,0 24.44554,-10.9603998 24.44554,-24.4429525 0,-13.482548 -10.96298,-24.445536 -24.44554,-24.445536 z m 0,7.000089 c 9.58101,0 17.44545,7.864439 17.44545,17.445447 0,9.581011 -7.86352,17.4433797 -17.44545,17.4433797 -9.58192,0 -17.44338,-7.8614557 -17.44338,-17.4433797 0,-9.581919 7.86237,-17.445447 17.44338,-17.445447 z" />
      </g>
      <g
         id="g89898">
        <rect
           style="fill:#000000;fill-opacity:0.216805;stroke:none;stroke-width:8.26101;stroke-linecap:round;stroke-linejoin:round;stroke-opacity:1;stop-color:#000000"
           id="rect89010-7"
           width="0.81793642"
           height="1.5000026"
           x="152.17842"
           y="131.67351" />
        <rect
           style="fill:#000000;fill-opacity:0.216805;stroke:none;stroke-width:8.26103;stroke-linecap:round;stroke-linejoin:round;stroke-opacity:1;stop-color:#000000"
           id="rect89010-0-9"
           width="0.81793642"
           height="1.5000046"
           x="152.17842"
           y="206.17351" />
      </g>
    </g>
  </g>
</svg>
